<?xml version="1.0" encoding="utf-8"?>
<!-- Generator: Adobe Illustrator 19.1.0, SVG Export Plug-In . SVG Version: 6.00 Build 0)  -->
<svg version="1.1" id="Layer_1" xmlns="http://www.w3.org/2000/svg" xmlns:xlink="http://www.w3.org/1999/xlink" x="0px" y="0px"
	 viewBox="-189 44.8 11 8.2" style="enable-background:new -189 44.8 11 8.2;" xml:space="preserve">
<style type="text/css">
	.st0{fill:#DA251E;}
</style>
<path class="st0" d="M-185.3,52.8l-3.6-3.6c-0.2-0.2-0.2-0.6,0-0.8c0,0,0,0,0,0l0.8-0.8c0.2-0.2,0.6-0.2,0.8,0c0,0,0,0,0,0l2.4,2.4
	l5.2-5.2c0.2-0.2,0.6-0.2,0.8,0c0,0,0,0,0,0l0.8,0.8c0.2,0.2,0.2,0.6,0,0.8c0,0,0,0,0,0l-6.3,6.3C-184.7,53.1-185,53.1-185.3,52.8
	C-185.3,52.8-185.3,52.8-185.3,52.8z"/>
</svg>
