<?xml version="1.0" encoding="utf-8"?>
<!-- Generator: Adobe Illustrator 19.1.0, SVG Export Plug-In . SVG Version: 6.00 Build 0)  -->
<svg version="1.1" xmlns="http://www.w3.org/2000/svg" xmlns:xlink="http://www.w3.org/1999/xlink" x="0px" y="0px"
	 viewBox="-144 -2.9 100 100.9" style="enable-background:new -144 -2.9 100 100.9;" xml:space="preserve">
<style type="text/css">
	.st0{display:none;}
	.st1{display:inline;}
	.st2{fill:#FB8681;}
	.st3{fill:#15181A;}
	.st4{fill:#F8B1AE;}
	.st5{fill:#DE5852;}
	.st6{fill:#CDED6A;}
	.st7{fill:#AFCC47;}
	.st8{fill:#F3F38B;}
	.st9{fill:#FFFFFF;}
	.st10{fill:#EFD567;}
	.st11{fill:#16191B;}
	.st12{fill:#F4FFB3;}
	.st13{fill:#FFB77B;}
	.st14{fill:#DA251D;}
	.st15{fill:#F8CEA0;}
	.st16{fill:#F6C592;}
	.st17{fill:#F4BB87;}
	.st18{fill:#013E51;}
	.st19{fill:#006280;}
	.st20{fill:#003D4F;}
	.st21{fill:#013E50;}
	.st22{fill:#FFD742;}
	.st23{fill:#0E6B8E;}
	.st24{fill:#0C5272;}
	.st25{fill:#003E52;}
	.st26{fill:#00384C;}
	.st27{fill:#D9272E;}
</style>
<g id="Layer_1">
	<g transform="translate(-118.142 -32.427)" class="st0">
		<g transform="translate(118.142 32.427)" class="st1">
			<g transform="translate(0 3.04)">
				<g transform="translate(0 0)">
					<g transform="translate(2.092 2.099)">
						<path class="st2" d="M-115.2,30.2c-3.7,0-9.2-1.6-14.9-4.3c-5.8-2.8-12.5-7.1-13.7-11c-0.4-1-0.3-2.1,0.2-3
							c0.8-1.4,2.4-2.1,4.8-2.1c0.3,0,0.5,0,0.8,0c-1.1-2.4-1-4.3,0.2-5.6c0.8-0.8,1.9-1.3,3.1-1.2c0.8,0,1.6,0.1,2.4,0.4
							c-0.4-2.7,0-4.6,1.4-5.6c0.6-0.4,1.3-0.7,2.1-0.7c4,0,9.5,6.4,13.3,12.4c3.4,5.4,6.9,13,5.9,17.1c-0.1,0.7-0.4,1.4-0.9,2
							c-0.4,0.4-0.8,0.7-1.3,0.9C-112.9,30-114,30.2-115.2,30.2z"/>
					</g>
					<path class="st3" d="M-126.7,1.2c2.5,0,7.3,4.7,11.5,11.4c4.1,6.6,6.4,13,5.6,15.6c0,0.4-0.1,0.7-0.4,1
						c-0.2,0.2-0.4,0.3-0.7,0.4c-0.8,0.4-1.6,0.6-2.5,0.5c-3.2,0-8.5-1.5-14-4.1c-8.1-3.9-13.7-8.8-12.5-11c0.4-0.7,1.5-1,3-1
						c1.7,0,3.3,0.3,4.9,0.7c-2.4-3.2-3.4-5.9-2.4-7c0.4-0.4,0.9-0.6,1.5-0.5c2,0.2,3.9,0.9,5.6,2c-1.4-3.8-1.7-6.8-0.5-7.6
						C-127.4,1.3-127,1.2-126.7,1.2 M-126.7-2.9L-126.7-2.9c-1.2,0-2.4,0.4-3.3,1.1c-1.5,1.2-2.4,2.9-2.4,4.8h-0.1
						c-3.2-0.2-5.9,2.3-6.1,5.5c0,0.5,0,1,0.1,1.5c-1.9,0.2-3.7,1.3-4.7,3c-0.8,1.4-0.9,3.1-0.4,4.6c1.8,5.6,11.7,10.8,14.8,12.2
						c5.9,2.8,11.9,4.5,15.8,4.5c1.5,0.1,3-0.3,4.3-0.9c0.8-0.3,1.4-0.8,2-1.4c0.8-0.9,1.2-1.9,1.4-3c1.3-5.9-4.4-15.7-6.2-18.5
						C-114.2,6.4-120.7-2.9-126.7-2.9L-126.7-2.9z"/>
				</g>
				<g transform="translate(15.781 4.259)">
					<path class="st4" d="M-133.3,7.1c-3.9-4.4-7.8-7.6-10.7-8.8c0.1-0.4,0.3-0.7,0.6-1c2-1.5,7.6,3.5,12.4,11.2
						c1.3,2.1,2.5,4.3,3.6,6.6C-129.1,12.3-131.1,9.6-133.3,7.1z"/>
				</g>
				<g transform="translate(4.189 10.283)">
					<path class="st5" d="M-143.8,4.7c0.7-1.3,3.8-1.3,7.9-0.3c-2.4-3.2-3.4-5.9-2.4-7c0.1-0.2,0.3-0.3,0.5-0.4l23.9,21.4
						c-0.1,0.2-0.2,0.4-0.3,0.6c-0.2,0.2-0.4,0.3-0.7,0.4c-2.2,1.4-9.1-0.1-16.5-3.6C-139.5,11.9-145.1,6.9-143.8,4.7z"/>
				</g>
			</g>
			<g transform="translate(7.914)">
				<path class="st6" d="M-79.8,12.1C-83,7.9-87.2,4.5-92,2.2c-10.8-5.1-23.6-3.9-33.3,3.1c-5,3.7-8.6,9-11.1,14.7
					c-3.7,8.8-5.2,18.5-5.5,28c-0.3,10.5,0.5,21.1,2.3,31.4c0.6,3.1,1.4,6.5,3.8,8.8c1.1,1.2,2.6,1.8,4.2,1.7c4-0.4,3.9-5.7,4-8.7
					c0.1-2.2,0-4.8,1.4-6.6c0.7-0.8,1.8-1.2,2.8-0.8c0.7,0.3,1.3,0.8,1.7,1.5c1.6,2.7,0.6,6,0.7,9c0,2.1,0.1,4.2,0.3,6.3
					c0.1,1.2,0.5,2.4,1.2,3.4c1.7,2.1,4.7,2.5,6.8,0.8c0.2-0.2,0.4-0.3,0.6-0.5c1.7-1.9,1.7-4.8,1.9-7.4c0-1.9,0.2-3.7,0.6-5.6
					c0.4-1.5,1.5-3.4,3.2-3.7c1.8-0.3,3.6,0.6,4.5,2.2c0.7,1.5,1.2,3.1,1.2,4.7c0.2,2.1,0.5,4.1,1.9,5.7c1.2,1.4,3.1,1.9,4.9,1.5
					c4.9-1.3,3.6-6.6,4.7-10.3c0.3-1.3,1.6-2.2,2.9-2c0.6,0.1,1.2,0.5,1.5,1c1,1.5,1.7,3.2,1.8,5.1c0.3,1.6,0.6,3.2,2.1,4.1
					c1,0.6,2.3,0.8,3.5,0.5c3.8-1,5.2-5.9,5.8-9.3c2.6-13.3,3.8-28.8,1.8-42.2C-71.1,29.2-74,19.6-79.8,12.1z"/>
				<path class="st3" d="M-115.6,98c-0.1,0-0.2,0-0.3,0c-2-0.1-3.9-1-5.1-2.7c-0.9-1.3-1.5-2.8-1.6-4.3c-0.2-1.6-0.3-3.2-0.3-4.8
					c0-0.6,0-1.1,0-1.7c0-1,0-2,0.1-2.9c0.1-2,0.3-3.7-0.5-5c-0.1-0.3-0.4-0.5-0.6-0.6c-0.2,0-0.4,0-0.5,0.2
					c-0.9,1.1-0.9,2.9-0.9,4.6c0,0.2,0,0.5,0,0.7c0,0.2,0,0.4,0,0.6c-0.1,3.1-0.2,9.6-5.8,10.1c-2.2,0.1-4.4-0.7-5.9-2.3
					c-2.8-2.7-3.7-6.5-4.4-9.9c-1.9-10.5-2.7-21.2-2.4-31.9c0.3-11.2,2.2-20.6,5.6-28.8c2.5-6.2,6.5-11.5,11.8-15.6
					c10.3-7.4,23.9-8.6,35.4-3.3c5.1,2.4,9.6,6,13,10.5l0,0c5.3,6.7,8.7,15.7,10.5,27.3c2.5,16.3,0,33.9-1.8,42.9
					c-0.5,2.3-1.8,9.4-7.3,10.9c-1.7,0.4-3.5,0.2-5-0.7c-2.4-1.4-2.8-4.1-3.1-5.6c-0.1-1.5-0.6-2.9-1.4-4.1
					c-0.2-0.2-0.3-0.3-0.5-0.3s-0.3,0.2-0.4,0.5c-0.3,1-0.4,2-0.5,3c-0.3,3.1-0.8,7.4-5.7,8.7c-2.5,0.6-5.2-0.2-6.9-2.1
					c-1.9-2.1-2.2-4.7-2.4-6.8c-0.1-1.3-0.4-2.6-1-3.9c-0.5-0.8-1.4-1.3-2.3-1.2c-0.6,0.1-1.2,1.1-1.5,2.2c-0.3,1.2-0.4,2.4-0.4,3.6
					c0,0.5-0.1,1.1-0.1,1.6c0,0.4-0.1,0.7-0.1,1.1c-0.2,2.5-0.4,5.4-2.3,7.6C-111.8,97.2-113.7,98-115.6,98z M-124.2,71.7
					c0.5,0,1,0.1,1.5,0.3c1.2,0.5,2.1,1.3,2.7,2.4c1.5,2.5,1.3,5.1,1.1,7.5c-0.1,0.8-0.1,1.6-0.1,2.5c0,0.6,0,1.2,0,1.7
					c0,1.4,0.1,2.9,0.3,4.3c0.1,0.9,0.4,1.7,0.8,2.5c0.5,0.6,1.2,1,2,1c0.8,0,1.6-0.3,2.2-0.9c1-1.1,1.1-3,1.3-5.1
					c0-0.4,0.1-0.8,0.1-1.2c0-0.5,0.1-0.9,0.1-1.4c0-1.5,0.2-3,0.6-4.5c0.6-2.2,2.2-4.7,4.8-5.2c2.6-0.4,5.3,0.8,6.6,3.2
					c0.9,1.7,1.4,3.6,1.5,5.5c0.2,2,0.5,3.4,1.4,4.5c0.7,0.8,1.8,1.1,2.8,0.8c2-0.5,2.3-1.8,2.6-5.1c0.1-1.3,0.3-2.5,0.7-3.8
					c0.5-1.7,1.8-3,3.6-3.4c1.7-0.3,3.4,0.4,4.5,1.7c1.3,1.8,2,3.9,2.3,6c0.2,1.4,0.5,2.3,1.1,2.6c0.6,0.3,1.3,0.4,1.9,0.2
					c2-0.5,3.4-3,4.3-7.7c2.9-15.1,3.5-29.9,1.8-41.5c-1.7-10.9-4.8-19.2-9.7-25.4l0,0c-3-4-7-7.1-11.5-9.3
					C-103.1-0.6-115,0.5-124.1,7c-4.6,3.6-8.2,8.4-10.4,13.9c-3.3,7.7-5,16.6-5.3,27.3c-0.3,10.4,0.4,20.8,2.3,31
					c0.6,2.9,1.3,5.8,3.2,7.7c0.7,0.7,1.6,1.1,2.6,1.1c1.6-0.2,2-2.3,2.1-6c0-0.2,0-0.4,0-0.6s0-0.4,0-0.6c0-2.2,0.1-5,1.9-7.2
					C-126.9,72.3-125.5,71.7-124.2,71.7z"/>
			</g>
			<g transform="translate(20.216 22.348)">
				<circle class="st7" cx="-127.6" cy="13.4" r="16.4"/>
			</g>
			<g transform="translate(19.18 21.895)">
				<circle class="st8" cx="-127.8" cy="13.2" r="13.7"/>
				<path class="st3" d="M-127.8,29.4c-8.9,0-16.2-7.2-16.2-16.2c0-8.9,7.2-16.2,16.2-16.2c8.9,0,16.2,7.2,16.2,16.2
					C-111.6,22.2-118.9,29.4-127.8,29.4z M-127.8,2.1c-6.2,0-11.2,5-11.2,11.2s5,11.2,11.2,11.2c6.2,0,11.2-5,11.2-11.2
					C-116.7,7.1-121.7,2.1-127.8,2.1L-127.8,2.1z"/>
			</g>
			<g transform="translate(29.544 26.869)">
				<path class="st9" d="M-138.1-2.9c-2.1,0-4.1,0.6-5.9,1.7c5.5-2.6,12.2-0.3,14.8,5.2c2.4,5.1,0.7,11.2-4.1,14.2
					c5.5-2.6,7.9-9.3,5.2-14.8C-129.9-0.5-133.8-2.9-138.1-2.9L-138.1-2.9z"/>
			</g>
			<g transform="translate(24.196 33.485)">
				<path class="st10" d="M-131.1,11.4c-6.7,0-12.1-5.4-12.1-12.1c0-0.8,0.1-1.5,0.2-2.3c-2.6,5.6-0.1,12.2,5.5,14.7
					c4,1.8,8.7,1.1,12-1.8C-127.2,10.9-129.2,11.4-131.1,11.4z"/>
			</g>
			<g transform="translate(32.26 31.508)">
				<path class="st3" d="M-141.2,10.8L-141.2,10.8c-1.5,0-2.8-1.2-2.8-2.8v-8.2c0-1.5,1.2-2.8,2.8-2.8l0,0c1.5,0,2.8,1.2,2.8,2.8V8
					C-138.5,9.6-139.7,10.8-141.2,10.8C-141.2,10.8-141.2,10.8-141.2,10.8z"/>
			</g>
			<g transform="translate(17.576 54.001)">
				<path class="st7" d="M-139.8,5.1c0-0.9,0.3-1.8,0.8-2.6c0-0.1,0.1-0.1,0.1-0.2c0,0,0,0,0,0c0.4-0.5,0.9-1,1.5-1.4
					c0.1-0.7-0.1-1.4-0.5-1.9c-0.1-0.3-0.7-0.7-1-0.5c-1.9,1.5-1.8,4.9-1.7,7.6c0,1.3,0.3,2.9-0.5,3.8c-0.3,0.4-0.5,0.5-0.8,0.1
					c-0.7-0.9-0.6-4-0.6-5.2c0-1.1-0.1-2.2,0-3.4c0-0.4,0-0.8,0-1.3c0-0.1,0-0.3,0-0.4c0,0,0-0.1,0-0.2c0-0.6,0.1-2.3-0.5-2.6
					s-0.9,0.8-0.9,1.5c-0.2,2.3-0.2,4.6-0.1,6.9c0.1,2.5,0.2,5.6,1.1,7.9c1,2.3,2.5,0.9,3.2-1c0.5-1.5,0.6-3.2,0.5-4.8
					C-139.5,6.8-139.8,6-139.8,5.1z"/>
			</g>
			<g transform="translate(15.53 56.104)">
				<path class="st11" d="M-131.4,2.7c-1.2,0.7-1.7,1.1-2.2-0.3c-0.3-1-0.7-2-1.1-3c-0.2-0.3-0.5-0.7-1-0.5c-3,1.6-2.8,5.4-2.7,8.3
					c0.1,1.4,0.4,3.2-0.8,4.2c-0.5,0.4-0.8,0.6-1.2,0.1c-1.1-1-0.9-4.3-1-5.7c-0.1-1.2-0.1-2.4-0.1-3.7c0-0.5,0-0.9,0-1.4
					c0-0.2,0-0.3,0-0.5c0,0,0-0.1,0-0.2c0.1-0.7,0.1-2.5-0.8-2.8c-0.9-0.3-1.4,0.9-1.4,1.6c-0.2,2.5-0.3,5-0.1,7.5
					c0.2,2.8,0.3,6.1,1.8,8.6c1.6,2.5,3.9,1,5-1.1c0.8-1.8,1.1-3.7,0.8-5.7c-0.1-1.6-0.7-3.8,0.4-5.1c0.3,1.2,0.7,2.3,1.4,3.3
					c1.2,1.4,2.6,0.5,3.5-0.7C-130.3,5.2-130.1,2-131.4,2.7z"/>
				<path class="st3" d="M-140,16.5c-0.9,0-1.7-0.6-2.1-1.4c-1.5-2.4-1.6-5.5-1.8-8.2l0-0.5c-0.2-2.5-0.1-5,0.1-7.5
					c0-0.6,0.3-1.2,0.8-1.7c0.3-0.2,0.6-0.2,0.9-0.1c1.2,0.4,1,2.8,1,3l0,0.2c0,0.1,0,0.3,0,0.4c0,0.5,0,0.9,0,1.4
					c0,1.2,0,2.5,0.1,3.7c0,0.2,0,0.5,0,0.9c0,1.5,0.1,3.9,0.9,4.7c0.3,0.3,0.4,0.3,1-0.1c1-0.8,0.8-2.2,0.7-3.4c0-0.2,0-0.4,0-0.6
					c-0.2-2.9-0.4-6.8,2.8-8.5c0.4-0.2,0.9,0,1.2,0.6c0.3,0.7,0.6,1.4,0.8,2.1c0.1,0.3,0.2,0.6,0.3,0.9c0.2,0.5,0.3,0.7,0.5,0.8
					c0.2,0.1,0.6-0.1,1.1-0.4c0.1-0.1,0.2-0.1,0.3-0.2c0.3-0.2,0.7-0.2,0.9,0.1c0.6,0.6,0.4,2.7,0,3.2c-0.5,0.8-1.4,1.4-2.3,1.5
					c-0.6,0-1.2-0.3-1.6-0.8c-0.5-0.7-0.9-1.5-1.1-2.4c-0.1-0.2-0.1-0.4-0.2-0.7c-0.6,0.9-0.4,2.3-0.3,3.5c0.1,0.4,0.1,0.8,0.1,1.2
					c0.2,2-0.1,4-0.9,5.8C-137.3,15.2-138.5,16.2-140,16.5L-140,16.5z M-142.4-2.5c-0.1,0-0.2,0-0.3,0.1c-0.4,0.4-0.6,0.8-0.6,1.4
					c-0.2,2.5-0.3,4.9-0.1,7.4l0,0.5c0.1,2.7,0.3,5.7,1.7,8c0.3,0.7,1.1,1.2,1.8,1.2c1.3-0.3,2.3-1.1,2.8-2.3c0.8-1.7,1-3.7,0.8-5.6
					c0-0.4-0.1-0.7-0.1-1.1c-0.2-1.4-0.4-3,0.6-4.1l0.2-0.3l0.1,0.3c0.1,0.3,0.2,0.7,0.3,1c0.2,0.8,0.5,1.6,1,2.2
					c0.3,0.4,0.7,0.7,1.2,0.7c0.8-0.1,1.6-0.6,2-1.3c0.3-0.9,0.3-1.8,0-2.7c0-0.1-0.1-0.1-0.4,0l0,0c-0.1,0.1-0.2,0.1-0.3,0.2
					c-0.6,0.3-1,0.6-1.4,0.4c-0.3-0.1-0.5-0.4-0.8-1.1c-0.1-0.3-0.2-0.6-0.3-0.9c-0.2-0.7-0.5-1.4-0.8-2c-0.2-0.3-0.4-0.6-0.7-0.4
					c-2.9,1.5-2.7,5.3-2.6,8.1c0,0.2,0,0.4,0,0.6c0.1,1.3,0.2,2.8-0.9,3.7c-0.5,0.4-0.9,0.7-1.5,0.1c-1-0.9-1-3.3-1-5
					c0-0.3,0-0.6,0-0.8c-0.1-1.2-0.1-2.4-0.1-3.7c0-0.5,0-0.9,0-1.4c0-0.2,0-0.3,0-0.5l0-0.2c0.1-0.9,0-2.4-0.7-2.6
					C-142.3-2.5-142.4-2.5-142.4-2.5L-142.4-2.5z"/>
			</g>
			<g transform="translate(13.42 4.409)">
				<g transform="translate(0)">
					<path class="st12" d="M-114.1-2.9c-5.5,0.5-10.8,2.4-15.3,5.6c-4.7,3.6-8.3,8.4-10.5,13.9c-1.9,4.6-3.3,9.3-4.1,14.2
						C-139.2,13.7-127.6,0.9-114.1-2.9z"/>
				</g>
			</g>
			<g transform="translate(47.509 4.321)">
				<g transform="translate(0 0)">
					<path class="st7" d="M-111,34.6c-1.7-10.9-4.9-19.2-9.8-25.4C-126.4,2-134.9-2.5-144-2.9c14.9,2.6,26.5,23.4,26.5,48.7
						c0.1,9.7-1.8,19.4-5.5,28.4c0.2,0.2,0.4,0.4,0.6,0.6c1.3,1.8,2.1,3.9,2.3,6c0.2,1.4,0.5,2.3,1.1,2.6c0.6,0.3,1.3,0.4,1.9,0.2
						c2-0.5,3.5-3,4.4-7.7C-109.8,61-109.2,46.2-111,34.6z"/>
				</g>
			</g>
			<g transform="translate(59.256 2.931)">
				<g transform="translate(0 0)">
					<g transform="translate(2.093 2.091)">
						<path class="st2" d="M-134.5,26.7c-3.9,0-6.6-0.7-8.1-2c-0.4-0.3-0.8-0.7-1.1-1.2c-0.3-0.7-0.5-1.4-0.4-2.2
							c0-4.2,5.2-10.8,9.7-15.2c4.5-4.4,10.7-9.1,14.7-9.1c1.1-0.1,2.2,0.4,3,1.3c1.1,1.3,1.1,3.3,0.1,5.8c0.2,0,0.4,0,0.6,0
							c2.8,0,4,1.1,4.5,2.1c0.8,1.6,0.4,3.4-1.1,5.5c2.8,0.5,4.5,1.6,5,3.3c0.3,1,0.1,2.1-0.5,3c-2.1,3.4-9.5,6.1-15.8,7.5
							C-127.3,26.3-130.9,26.7-134.5,26.7z"/>
					</g>
					<path class="st3" d="M-117.4,1.2c0.5,0,1,0.2,1.4,0.5c1,1.1,0,3.9-2.3,7.3c1.5-0.5,3-0.7,4.6-0.8c1.3,0,2.3,0.3,2.6,1
						c0.7,1.3-0.9,3.7-4,6.3c0.2,0,0.3,0,0.5,0c3.9,0,6.7,0.7,7.1,2.1c0.7,2.4-5.9,5.9-14.7,7.8c-3.3,0.7-6.7,1.1-10.2,1.2
						c-3.3,0-5.8-0.5-6.7-1.5c-0.2-0.1-0.4-0.3-0.6-0.6c-0.2-0.3-0.2-0.7-0.1-1c-0.1-2.7,3.5-8.4,9.1-13.9
						C-125.4,4.6-120.1,1.3-117.4,1.2 M-117.4-2.9c-5.9,0-13.9,7.4-16.2,9.7c-2.4,2.4-10.2,10.5-10.3,16.6c-0.1,1.1,0.1,2.3,0.6,3.3
						c0.4,0.7,0.9,1.4,1.6,1.8c1.9,1.6,4.9,2.4,9.4,2.4c3.7,0,7.4-0.5,11-1.3c3.3-0.7,14.2-3.4,17.2-8.5c0.9-1.4,1.1-3.1,0.7-4.6
						c-0.6-1.9-2-3.3-3.8-4c1.4-2.9,0.1-6.4-2.8-7.7c-0.5-0.2-1-0.4-1.5-0.5c0.4-1.9,0-3.8-1.2-5.3C-114-2.2-115.7-3-117.4-2.9
						L-117.4-2.9z"/>
				</g>
				<g transform="translate(8.292 4.261)">
					<path class="st4" d="M-136.4,4.8c4.8-3.3,9.4-5.5,12.4-6.1c0-0.4-0.1-0.8-0.4-1.1c-1.6-1.9-8.2,1.7-14.6,8
						c-1.8,1.8-3.5,3.6-5,5.6C-141.7,8.8-139.2,6.7-136.4,4.8z"/>
				</g>
				<g transform="translate(4.198 11.774)">
					<path class="st5" d="M-111.7,5.9c-0.4-1.5-3.4-2.2-7.6-2.1c3.1-2.6,4.7-5,4-6.3c-0.1-0.2-0.2-0.3-0.4-0.5L-144,12.3
						c0,0.2,0.1,0.4,0.2,0.6c0.1,0.2,0.3,0.4,0.6,0.6c1.8,1.9,8.9,2,16.9,0.3C-117.6,11.8-111,8.3-111.7,5.9z"/>
				</g>
			</g>
			<g transform="translate(56.942 41.687)">
				<path class="st7" d="M-139.9-0.9c0,1.1-0.9,2.1-2,2.1s-2.1-0.9-2.1-2c0-1.1,0.9-2.1,2-2.1C-140.9-3-139.9-2.1-139.9-0.9
					C-139.9-0.9-139.9-0.9-139.9-0.9z"/>
			</g>
			<g transform="translate(39.826 73.146)">
				<path class="st7" d="M-139.9-0.9c0,1.1-0.9,2.1-2,2.1s-2.1-0.9-2.1-2s0.9-2.1,2-2.1l0,0C-140.9-3-139.9-2.1-139.9-0.9z"/>
			</g>
			<g transform="translate(35.233 76.601)">
				<path class="st12" d="M-141.3-1.6c0,0.7-0.6,1.4-1.3,1.4c-0.7,0-1.4-0.6-1.4-1.3c0-0.7,0.6-1.4,1.3-1.4
					C-141.9-3-141.3-2.4-141.3-1.6z"/>
			</g>
			<g transform="translate(62.663 42.982)">
				<circle class="st7" cx="-140.9" cy="0.1" r="3.1"/>
			</g>
			<g transform="translate(63.059 37.987)">
				<path class="st7" d="M-140.9-1.4c0,0.8-0.7,1.6-1.5,1.6c-0.8,0-1.6-0.7-1.6-1.5c0-0.8,0.7-1.6,1.5-1.6c0,0,0,0,0,0
					C-141.6-3-140.9-2.3-140.9-1.4z"/>
			</g>
			<g transform="translate(56.672 9.108)">
				<path class="st12" d="M-140.9-1.4c0,0.8-0.7,1.6-1.5,1.6c-0.8,0-1.6-0.7-1.6-1.5c0-0.8,0.7-1.6,1.5-1.6c0,0,0,0,0,0
					C-141.6-3-140.9-2.3-140.9-1.4z"/>
			</g>
			<g transform="translate(54.293 52.551)">
				<path class="st7" d="M-126.2,10.1c0-0.5-0.1-1.9-0.9-1.9s-0.9,1.4-0.9,1.9c-0.1,0.9,0,2.5-0.6,3.3c-0.9,1.2-2.3-0.1-2.9-1.1
					c-1.4-2.5-1.3-5.5-3.3-7.8c-0.8-0.9-1.4,0.6-1.5,1.2c-0.1,0.7-0.2,2.3-1.2,2.4c-0.8,0.1-1-0.7-1.1-1.1c-0.3-1.6-0.6-3.2-0.7-4.8
					c-0.3-1.8-1.3-6.7-4.1-4.7c-1.1,0.7-0.6,4.5,0.5,3.7c1.5-1,1.6,1.2,1.8,2.2c0.3,1.8,0.4,3.7,0.8,5.5c0.3,1.4,1.4,3.7,3.2,3.4
					c1.2-0.2,1.9-1.5,2.3-2.9c1.4,3,1.1,7.7,4.9,8.6C-126.2,18.9-126.1,12.3-126.2,10.1z"/>
			</g>
			<g transform="translate(53.975 56.446)">
				<path class="st11" d="M-125.9,10.3c0-0.5-0.1-1.9-0.9-1.9s-0.9,1.4-0.9,1.9c-0.1,0.9,0,2.5-0.6,3.3c-0.9,1.2-2.3-0.1-2.9-1.1
					c-1.4-2.5-1.3-5.5-3.3-7.8c-0.8-0.9-1.4,0.6-1.5,1.2c-0.1,0.7-0.2,2.3-1.2,2.4c-0.8,0.1-1-0.7-1.1-1.1c-0.3-1.6-0.6-3.2-0.7-4.8
					c-0.3-1.8-1.3-6.7-4.1-4.7c-1.1,0.8-0.6,4.5,0.5,3.7c1.5-1,1.6,1.2,1.8,2.2c0.3,1.8,0.4,3.7,0.8,5.5c0.3,1.4,1.4,3.7,3.2,3.4
					c1.2-0.2,1.9-1.5,2.3-2.9c1.4,3,1.1,7.7,4.9,8.6C-126,19.1-125.9,12.5-125.9,10.3z"/>
				<path class="st3" d="M-129,18.5c-0.2,0-0.5,0-0.7-0.1c-2.8-0.7-3.5-3.3-4.1-5.8c-0.2-0.8-0.4-1.6-0.7-2.4
					c-0.5,1.5-1.3,2.3-2.3,2.5c-2,0.3-3.1-2.1-3.5-3.5c-0.2-1.1-0.4-2.1-0.5-3.2c-0.1-0.7-0.2-1.5-0.3-2.3c0-0.1,0-0.2-0.1-0.4
					c-0.1-0.7-0.3-1.8-0.7-1.9c-0.2-0.1-0.4,0-0.7,0.2c-0.2,0.1-0.4,0.2-0.6,0.1c-0.5-0.2-0.7-1.1-0.8-1.8c-0.2-0.8,0.1-1.7,0.7-2.4
					c0.6-0.5,1.3-0.6,2-0.4c1.7,0.7,2.3,4.1,2.5,5.2c0.1,0.6,0.2,1.2,0.2,1.9c0.1,1,0.2,2,0.5,2.9l0,0.1c0.2,0.5,0.3,0.9,0.9,0.9
					c0.7-0.1,0.8-1.2,0.9-1.9c0-0.1,0-0.2,0.1-0.3c0.1-0.4,0.4-1.4,1-1.6c0.3-0.1,0.6,0.1,0.8,0.3c1.1,1.3,1.8,2.9,2.1,4.6
					c0.3,1.1,0.7,2.2,1.2,3.3c0.3,0.6,1.1,1.4,1.8,1.4c0.3,0,0.6-0.1,0.7-0.4c0.4-0.9,0.6-1.8,0.6-2.8c0-0.1,0-0.3,0-0.4
					c0.1-1.4,0.5-2.1,1.1-2.1s1.1,0.7,1.1,2.1l0,0c0.1,1.4,0.1,6.1-1.8,7.7C-128,18.3-128.5,18.5-129,18.5z M-134.7,9l0.2,0.5
					c0.4,1,0.7,2,1,3c0.6,2.5,1.2,4.9,3.8,5.5c0.6,0.2,1.3,0,1.8-0.4c1.4-1.2,1.8-4.6,1.7-7.4l0,0c0-0.4-0.1-1.7-0.7-1.7
					c-0.4,0-0.7,0.6-0.7,1.7c0,0.1,0,0.3,0,0.4c0,1-0.2,2.1-0.6,3c-0.2,0.4-0.7,0.6-1.1,0.6c-0.9-0.2-1.7-0.8-2.1-1.6
					c-0.5-1.1-1-2.2-1.2-3.3c-0.3-1.6-1-3.1-2-4.4c-0.2-0.2-0.3-0.2-0.4-0.2c-0.3,0.1-0.6,0.8-0.7,1.3c0,0.1,0,0.2-0.1,0.3
					c-0.1,0.9-0.3,2.2-1.3,2.3c-0.9,0.1-1.2-0.7-1.3-1.2l0-0.1c-0.3-1-0.4-2-0.5-3c-0.1-0.6-0.1-1.2-0.2-1.8
					c-0.5-2.9-1.2-4.5-2.2-4.9c-0.6-0.2-1.2-0.1-1.6,0.3c-0.5,0.6-0.6,1.3-0.5,2c0.1,0.8,0.3,1.3,0.5,1.4c0,0,0.1,0,0.2,0
					c0.3-0.3,0.7-0.4,1.1-0.2c0.7,0.3,0.8,1.4,0.9,2.3c0,0.1,0,0.2,0.1,0.4c0.1,0.8,0.2,1.5,0.3,2.3c0.1,1.1,0.3,2.1,0.5,3.2
					c0.3,1.2,1.2,3.5,3,3.2c0.9-0.2,1.7-1.1,2.1-2.7L-134.7,9z"/>
			</g>
			<g transform="translate(74.143 39.44)">
				<path class="st7" d="M-139.5,4.3c-0.2-2.1-1.2-1.2-1.3,0.5c0,1,0.3,3.1,0,3.9c-0.5,1.2-1.1-0.4-1.3-1.2c-0.6-3-0.1-6.2-0.5-9.2
					c-0.4-2.5-1.6-0.8-1.3,1c0.3,2.1,0.1,4.5,0.3,6.6c0.1,2.1,0.2,4.9,1.4,6.5s2.3,0.4,2.7-1.4C-139.3,8.8-139.2,6.5-139.5,4.3z"/>
			</g>
			<g transform="translate(73.206 43.207)">
				<path class="st11" d="M-137.7,4.3c-0.2-2.1-1.8-1.2-1.8,0.5c0,1,0.5,3.1-0.1,3.9c-0.8,1.2-1.6-0.4-1.8-1.2
					c-0.8-3-0.1-6.2-0.7-9.2c-0.5-2.5-2.2-0.8-1.8,1c0.4,2.1,0.2,4.5,0.4,6.6c0.2,2.1,0.3,4.9,1.9,6.5s3.2,0.4,3.8-1.4
					C-137.3,8.8-137.3,6.5-137.7,4.3z"/>
			</g>
			<g transform="translate(12.955 71.395)">
				<g transform="translate(0 0)">
					<path class="st12" d="M-134.7,13.3c-3.8,0.5-7.8-6.7-9.3-16.2c0.4,3.8,0.9,7.4,1.6,10.7c0.6,2.8,1.3,5.7,3.2,7.6
						c0.7,0.7,1.6,1.1,2.6,1.1C-135.4,16.4-134.9,15.3-134.7,13.3C-134.7,13.3-134.7,13.3-134.7,13.3z"/>
				</g>
			</g>
		</g>
	</g>
</g>
<g id="Layer_2">
	<path class="st13" d="M-66.5,43.7c0,9.7-5.2,18.3-12.9,23c-4.7-1.9-9.3-3.7-14-5.6c-4.7,1.9-9.3,3.8-14,5.6c-2.5-1.6-9-6.3-11.8-15
		c-0.3-1-1.2-4.4-1.2-8.1c0-14.9,12.1-27,27-27S-66.5,28.8-66.5,43.7"/>
	<path class="st14" d="M-80.2,19.7c-1.6-2.9-0.3-5.2-0.3-5.2c-1.6,0.2-2.7,1.4-3.1,2.5c-0.2,0.7-0.3,1.4-1.2,1.8
		c-0.8,0.3-1.9-0.2-2-1.4c-0.2-2.5,1.7-3.6,2.2-6.9c0.5-3.4-1.9-5-1.9-5c0.2,4.6-3.7,7-5.2,3c-1.9-5.1,2.3-8.6,2.3-8.6
		C-94.3-0.5-97,2.6-98,4.7c-1.3,2.8-0.3,5.7-0.2,6.3c0.2,0.8,0.8,2.6-0.4,2.8c-0.8,0.2-1.4-0.1-2.2-2.1c-1.1-2.5-0.5-5.2-0.5-5.2
		c-2.2,1.6-2.7,3.8-2.7,5.2c0,1.6,1,3.7,1.5,4.7c0.5,1,0.6,2.5-0.2,2.8c-1.5,0.6-1.8-1.9-3-3.5c-1.2-1.6-2.8-1.9-2.8-1.9
		s1.1,1.1,0.7,3.7c-0.4,2.2-1.5,3.2-1.9,6.5c-0.2,1.5,0.5,3.7,1.1,4.6c1.1,1.6,2.4,2.3,2.4,2.3l1-0.8c0,0-0.1-4.5,1.1-6.6
		c1.2-2.2,6.7-3.8,10.4-4.1c3.7-0.3,6.5,2,9.2,3.3c2.7,1.4,2.2,7.4,2.2,7.4l1.1,1.2c0,0,1.5-1.6,2.3-3c0.2-0.3,0.8-1.6,0.9-3.4
		C-78.2,23-79.1,21.8-80.2,19.7"/>
	<path class="st14" d="M-82.4,13.4c0.5-1,0.4-2.4-0.8-3.7c0,0,0.3,2-0.3,3C-84.1,13.8-82.9,14.4-82.4,13.4"/>
	<path class="st15" d="M-109.2,34.3c0,0-5.8,18.4,8.2,24.2s20.3-2.7,22.5-6.5c2.1-3.8,3-10.3,1.9-14.8c-1-4.5-0.7-4.7-0.7-6
		c0.1-1.4-0.4-3.1-6.4-5S-95.4,23-100.6,25c-5.2,2-10.7,4.5-10,7.4C-109.8,35.2-109.2,34.3-109.2,34.3"/>
	<path class="st16" d="M-89.5,26.5c1.3,0.7,6.6,3.7,8.8,10.3c3,9-2.5,16.4-2.9,16.8c-3.9,5-9.3,6.4-10.9,6.7c0,0,10.9,1.1,15.2-7.4
		s4.4-11.8,2.8-16.2c-1.6-4.4,0.4-3.1,0.2-4.4c-0.1-0.4-1.6-3.6-5.6-5.2C-85.1,25.9-87.9,26.2-89.5,26.5"/>
	<path class="st17" d="M-97.4,26.5c-1.4,1.1-6.1,5.3-6.9,12.2c-1,7.6,3.4,13.3,4.4,14.6c2.6,3.3,7.5,6.9,7.5,6.9s-10.9,1.1-15.2-7.4
		s-4.4-11.8-2.8-16.2c1.6-4.4-0.4-3.1-0.2-4.4c0.1-0.4,1.6-3.6,5.6-5.2C-101.8,25.9-98.9,26.2-97.4,26.5"/>
	<path class="st18" d="M-112.6,40.2c-1.3-1.4-2.3-3-2.2-4.8c0.4-5.3,10.6-9.2,18.5-9.8c12.6-1,25.1,7,24.4,10.4
		c-0.2,1.1-1.7,1.7-3.3,2.1c-1.2-1.5-3.3-4-6.7-5.8c-4.8-2.6-9.2-2.5-12.1-2.4c-3.5,0.1-10.1,0.3-15.1,5.2
		C-110.9,36.9-112,38.9-112.6,40.2"/>
	<path class="st19" d="M-94.1,25.5c11.8,0,22.9,7.2,22.3,10.4c-0.2,1.1-1.7,1.7-3.3,2.1c-1.2-1.5-3.3-4-6.7-5.8
		c-3.9-2.1-7.6-2.4-10.4-2.4c-0.6,0-1.2,0-1.7,0c-3.5,0.1-10.1,0.3-15.1,5.2c-1.9,1.8-3,3.8-3.6,5.1c-1.3-1.4-2.3-3-2.2-4.8
		c0.4-5.3,10.6-9.2,18.5-9.8C-95.5,25.6-94.8,25.5-94.1,25.5 M-94.1,25.2c-0.7,0-1.4,0-2.2,0.1c-4.1,0.3-8.7,1.5-12.2,3.1
		c-2.9,1.4-6.4,3.7-6.6,6.9c-0.1,1.6,0.6,3.3,2.2,5.1l0.3,0.3l0.2-0.4c0.9-1.9,2.1-3.6,3.5-5c4.9-4.8,11.6-5,14.9-5.1
		c0.6,0,1.1,0,1.7,0c2.7,0,6.3,0.3,10.3,2.4c2.6,1.4,4.8,3.3,6.6,5.7l0.1,0.2l0.2,0c2.2-0.6,3.3-1.4,3.5-2.4c0.1-0.7-0.2-1.6-1-2.6
		c-1.6-1.9-4.7-3.9-8.3-5.5C-83.9,26.7-88.6,25.2-94.1,25.2"/>
	<path class="st20" d="M-85.3,19.5c0-4.6-3.7-8.3-8.3-8.3s-8.3,3.7-8.3,8.3c0,0,0,0,0,0L-85.3,19.5C-85.3,19.5-85.3,19.5-85.3,19.5"
		/>
	<path class="st20" d="M-85.3,19.8h-16.8v-0.3c0-4.7,3.8-8.5,8.5-8.5s8.5,3.8,8.5,8.5v0.3H-85.3z M-101.6,19.3h16.1
		c-0.1-4.4-3.7-7.8-8-7.8C-98,11.5-101.5,15-101.6,19.3"/>
	<path class="st18" d="M-69.8,28.9c-0.1-0.3-0.4-0.7-0.6-1s-0.5-0.6-0.7-0.9c-1-1.1-2.3-2-3.6-2.8c-2.6-1.6-5.6-3-8.8-3.9
		c-3.3-1-5.4-1.2-5.4-1.2c-0.1,0-0.1-0.3-0.2-0.4c-0.1-0.3-0.3-0.7-0.4-1c-0.5-1.4-1.1-2.6-2.6-3h-0.4c-0.4,0.1-0.7,0.3-0.9,0.5
		c-0.3-0.2-0.5-0.5-0.9-0.5v0h-0.4c-1.8,0.4-2.4,2.5-3.1,4.3c-0.1,0.1-0.1,0.1-0.2,0.2c-1.3,0.2-4.7,0.7-9.3,2.6
		c-1.4,0.6-2.7,1.3-4,2c-1.3,0.7-2.5,1.5-3.5,2.5c-0.8,0.7-1.5,1.5-2,2.4c-0.2,0.3-0.3,0.8-0.2,1.2c0.1,0.8,0.5,1.5,0.7,2.3
		c0.2,0.8,0.1,1.8,0.2,2.8c0.1,0.9,0.4,1.6,0.7,2.2c0.1,0.2,0.2,0.3,0.3,0.4c0.1,0.2,0.2,0.3,0.3,0.5c0.3,0.5,0.7,0.9,1.1,1.3
		c1.7,1.3,2.7,1.9,2.9,1.6c0.1-0.1,0-0.3-0.1-0.7c0.2-0.3,0.4-0.9,0.2-1.4c-0.5-1.3-3.1-0.7-3.8-2.1c-0.3-0.7,0-1.6,0.2-2.1
		c0.2-0.5,0.6-1.1,1-1.5c0.8-0.9,1.6-1.8,4.2-3.3c2.6-1.5,4.6-2.2,7.1-2.9c1.9-0.5,4-1,6.4-1.2c2.2-0.2,2.5-0.2,4.7,0
		c2.3,0.2,4.4,0.6,6.4,1.2c1.3,0.4,2.6,0.8,3.8,1.2c2.1,0.8,4.7,2.2,6.3,3.7c0.4,0.4,0.8,0.8,1.2,1.3c0.4,0.4,0.7,1,1,1.5
		c0.1,0.2,0.4,1.2,0.2,2.1c-0.4,1.1-1.9,1.9-3.7,1.8c0.1,0.3,0.2,0.7,0.2,1.1c0,0.3,0.1,0.5,0.1,0.8c2.1-1.3,3.6-2.4,3.8-2.8
		c0.2-0.2,0.3-0.5,0.3-0.5c0.1-0.2,0.2-0.3,0.3-0.5c0.2-0.4,0.3-0.7,0.4-1.1c0.2-0.8,0.2-1.9,0.3-2.9c0-0.5,0.1-0.9,0.3-1.4
		C-70,30.7-69.4,29.8-69.8,28.9"/>
	<path class="st21" d="M-76.5,42.3l-0.1-1.6c0-0.2,0-0.5-0.1-0.7c0-0.3-0.1-0.7-0.2-1l-0.3-1.3l1.3,0.1c1.5,0.1,2.6-0.5,2.8-1.2
		c0.2-0.5,0-1.1-0.1-1.4c-0.2-0.5-0.5-0.9-0.8-1.3l-0.1-0.1c-0.4-0.4-0.7-0.8-1.1-1.1c-1.7-1.5-4.4-2.8-6.1-3.5
		c-1.2-0.5-2.6-0.9-3.7-1.2c-2.1-0.6-4.1-1-6.2-1.1c-2.2-0.2-2.4-0.2-4.6,0c-2.1,0.2-4.1,0.5-6.2,1.1c-2.4,0.7-4.4,1.3-6.9,2.8
		c-2.5,1.4-3.2,2.2-4,3.1l0,0c-0.3,0.3-0.6,0.8-0.8,1.3c-0.2,0.5-0.3,1-0.2,1.3c0.1,0.3,0.8,0.4,1.3,0.5c0.9,0.2,2,0.5,2.5,1.5
		c0.2,0.5,0.2,1.1,0,1.8c0.2,0.5,0.1,1-0.3,1.3c-0.8,0.8-1.9,0.1-4.1-1.6l-0.1-0.1c-0.5-0.5-0.9-0.9-1.2-1.4c0-0.1-0.1-0.2-0.2-0.3
		c0-0.1-0.1-0.1-0.1-0.2c0,0,0-0.1-0.1-0.1c-0.1-0.1-0.2-0.3-0.3-0.4c-0.5-0.9-0.8-1.7-0.8-2.6c0-0.5-0.1-0.9-0.1-1.3
		c0-0.5,0-1-0.1-1.4c-0.1-0.3-0.2-0.7-0.3-1c-0.1-0.4-0.3-0.8-0.4-1.3c-0.1-0.6,0-1.3,0.3-1.9c0.5-1,1.3-1.8,2.3-2.7
		c1.1-0.9,2.2-1.7,3.7-2.6c1.5-0.9,2.8-1.5,4.1-2.1c4.3-1.8,7.6-2.4,9.1-2.6l0,0c0-0.1,0.1-0.2,0.1-0.4c0.7-1.7,1.5-3.7,3.5-4.1
		l0.1,0h1.4v0.3c0.2-0.1,0.4-0.2,0.7-0.3l0.1,0h0.6l0.1,0c2,0.5,2.7,2.3,3.3,3.6l0.1,0.2c0.1,0.2,0.2,0.4,0.3,0.6
		c0.8,0.1,2.6,0.4,5,1.1c3.3,1,6.3,2.3,9.1,4.1c1.2,0.8,2.7,1.7,3.8,3c0.3,0.3,0.5,0.6,0.8,1l0,0c0.3,0.3,0.5,0.7,0.7,1.2l0,0
		c0.4,1,0,2-0.3,2.7c-0.1,0.2-0.1,0.3-0.2,0.5c-0.1,0.4-0.2,0.8-0.2,1.1c0,0.3,0,0.6-0.1,0.9c0,0.7-0.1,1.5-0.3,2.2
		c-0.1,0.5-0.3,0.9-0.5,1.3l0,0.1c-0.1,0.2-0.2,0.4-0.3,0.6c0,0.1-0.2,0.3-0.4,0.5c-0.5,0.5-2.4,1.9-4.1,3L-76.5,42.3z M-112.7,39
		c0.4,0.3,0.7,0.5,0.9,0.7c0-0.2,0-0.3,0-0.3C-111.8,39.2-112.3,39.1-112.7,39 M-94.6,15.6c-1,0.3-1.5,1.6-2.1,3
		c-0.1,0.3-0.2,0.5-0.3,0.7c-0.2,0.4-0.5,0.6-0.9,0.7h0c-0.1,0-0.3,0-0.4,0.1c-1.5,0.3-4.6,0.8-8.7,2.5c-1.2,0.5-2.4,1.1-3.8,1.9
		c-1.3,0.8-2.4,1.5-3.4,2.4c-0.8,0.7-1.4,1.4-1.8,2.2c-0.1,0.2-0.1,0.4-0.1,0.6c0.1,0.3,0.2,0.7,0.3,1c0.1,0.4,0.3,0.8,0.4,1.3
		c0.1,0.5,0.1,1.1,0.2,1.7c0,0.2,0,0.4,0,0.7c0.3-0.6,0.6-1.2,1.1-1.7l0,0c0.8-0.9,1.7-1.9,4.4-3.5c2.7-1.6,4.9-2.3,7.4-3
		c2.2-0.6,4.3-1,6.6-1.2c2.3-0.2,2.6-0.2,4.9,0c2.2,0.2,4.3,0.6,6.6,1.2c1.2,0.3,2.5,0.7,3.9,1.3c1.9,0.8,4.7,2.2,6.6,3.8
		c0.5,0.4,0.9,0.8,1.3,1.3l0.1,0.1c0.4,0.5,0.8,1,1.1,1.6c0-0.2,0-0.4,0-0.6c0-0.3,0-0.6,0.1-1c0-0.5,0.1-1,0.3-1.5
		c0.1-0.2,0.1-0.4,0.2-0.6c0.2-0.5,0.4-1,0.3-1.4c-0.1-0.2-0.3-0.5-0.5-0.8l0,0c-0.2-0.3-0.4-0.5-0.6-0.8c-1-1.1-2.2-1.9-3.4-2.6
		c-2.6-1.6-5.5-2.9-8.6-3.8c-3.1-0.9-5.2-1.1-5.2-1.1H-89l-0.1,0c-0.5-0.2-0.7-0.7-0.8-0.9c0,0,0,0,0,0c-0.1-0.3-0.2-0.5-0.3-0.8
		l-0.1-0.2c-0.5-1.3-1-2.2-1.9-2.5h-0.1c-0.1,0-0.2,0.1-0.4,0.3l-0.6,0.6l-0.7-0.5c-0.1-0.1-0.2-0.1-0.2-0.2
		c-0.2-0.1-0.2-0.2-0.3-0.2h0L-94.6,15.6L-94.6,15.6z"/>
	<path class="st22" d="M-101.9,20.2c1.5,1.4,2.9,3.1,4.1,4.8c1.2-2.5,3-5,3.9-5.9c0,0,0.1-0.1,0.1-0.2
		C-96.7,19.1-99.4,19.6-101.9,20.2"/>
	<path class="st9" d="M-97.7,25.2l-0.1-0.1c-1.4-1.9-2.8-3.5-4.1-4.8l-0.1-0.1l0.1,0c2.7-0.7,5.4-1.1,8.1-1.2h0.1l0,0.1
		c0,0.1,0,0.1-0.1,0.2l0,0c-0.8,0.8-2.7,3.3-3.8,5.8L-97.7,25.2z M-101.7,20.2c1.3,1.2,2.6,2.7,3.9,4.6c1.3-2.6,3-4.9,3.8-5.8l0,0
		C-96.5,19.2-99.1,19.6-101.7,20.2"/>
	<path class="st22" d="M-90.9,21.7c0.7,1,1.3,2.1,1.8,3.2c1.2-1.6,2.5-3.3,4-4.7c0,0,0.1-0.1,0.1-0.1c-2.5-0.6-5.2-1.1-8.1-1.2
		C-92.2,19.7-91.6,20.7-90.9,21.7"/>
	<path class="st9" d="M-89.1,25l-0.1-0.1c-0.6-1.2-1.2-2.2-1.8-3.2c-0.7-1-1.4-2-2.2-2.8l-0.1-0.1h0.2c2.6,0.1,5.3,0.5,8.1,1.2h0
		l0,0c0,0.1,0,0.2-0.1,0.2c-1.5,1.3-2.7,3-4,4.7L-89.1,25z M-92.9,18.9c0.8,0.8,1.4,1.7,2.1,2.7c0.6,0.9,1.2,1.9,1.8,3
		c1.2-1.7,2.5-3.3,3.9-4.6l0,0C-87.8,19.4-90.4,19-92.9,18.9"/>
	<path class="st14" d="M-94.8,21.2c-1,1.4-1.9,2.8-2.6,4.4c2.6-0.3,5.5-0.3,8.1,0c-0.7-1.6-1.7-3.1-2.6-4.4
		c-0.4-0.6-0.8-1.2-1.4-1.6c0,0,0,0,0,0C-93.9,19.9-94.4,20.6-94.8,21.2"/>
	<path class="st9" d="M-89.2,25.7l-0.1,0c-2.5-0.3-5.5-0.3-8,0l-0.1,0l0.1-0.1c0.7-1.6,1.7-3.2,2.6-4.4l0.1-0.2
		c0.4-0.5,0.8-1.1,1.3-1.5l0,0l0,0l0,0l0,0c0.5,0.4,0.9,1,1.3,1.6l0,0.1c0.8,1.2,1.9,2.7,2.6,4.4L-89.2,25.7z M-94.7,21.2
		c-0.9,1.2-1.8,2.7-2.6,4.3c2.5-0.3,5.3-0.3,7.8,0c-0.8-1.6-1.8-3.1-2.6-4.3l0-0.1c-0.4-0.5-0.8-1.1-1.3-1.5
		c-0.5,0.4-0.8,0.9-1.2,1.4L-94.7,21.2z"/>
	<path class="st14" d="M-102.1,20.8c-0.6,0.8-1.8,3.2-2.3,6.4c2-0.7,4.1-1.2,6.6-1.5C-99.1,23.9-100.5,22.2-102.1,20.8"/>
	<path class="st9" d="M-104.5,27.3l0-0.1c0.5-3.3,1.7-5.7,2.3-6.4l0-0.1l0.1,0.1c1.6,1.5,3,3.3,4.3,4.9l0.1,0.1l-0.1,0
		c-2.3,0.3-4.5,0.8-6.5,1.5L-104.5,27.3z M-102.1,20.9c-0.6,0.8-1.7,3.1-2.2,6.2c2-0.7,4.1-1.2,6.3-1.4
		C-99.2,24-100.6,22.3-102.1,20.9"/>
	<path class="st14" d="M-86.9,23.1c-0.7,0.8-1.3,1.6-1.9,2.4c0,0-0.1,0.1-0.1,0.2c2.4,0.3,4.6,0.8,6.6,1.5c-0.4-2.5-1.1-4.7-2.3-6.4
		C-85.4,21.4-86.2,22.3-86.9,23.1"/>
	<path class="st9" d="M-82.3,27.3l-0.1,0c-2.1-0.7-4.2-1.2-6.5-1.5h0l0,0c0-0.1,0-0.2,0.1-0.2l0,0c0.6-0.8,1.3-1.6,1.9-2.4
		c0.8-1,1.6-1.8,2.3-2.4l0.1-0.1l0,0.1c1.1,1.6,1.8,3.7,2.3,6.4L-82.3,27.3z M-88.8,25.6c2.2,0.3,4.3,0.7,6.3,1.4
		c-0.5-2.6-1.2-4.6-2.2-6.2c-0.7,0.6-1.4,1.4-2.2,2.3C-87.5,23.9-88.1,24.7-88.8,25.6C-88.8,25.6-88.8,25.6-88.8,25.6"/>
	<path class="st22" d="M-109.4,23c1.4,0.8,3.4,2.2,4.4,3.4c0,0,0.1,0.1,0.1,0.1c0.5-2.3,1.1-4.5,2.2-6.1
		C-105.1,21.1-107.3,22-109.4,23"/>
	<path class="st9" d="M-104.8,26.6c-0.1,0-0.1-0.1-0.1-0.1l0,0c-0.8-0.9-2.3-2.1-4.4-3.4l-0.1-0.1l0.1-0.1c2.2-1.1,4.4-1.9,6.8-2.6
		l0.2-0.1l-0.1,0.2C-103.5,21.9-104.2,23.9-104.8,26.6L-104.8,26.6L-104.8,26.6C-104.8,26.6-104.8,26.6-104.8,26.6 M-109.2,23
		c2.1,1.3,3.6,2.5,4.4,3.3l0,0c0.5-2.5,1.2-4.4,2.1-5.8C-105,21.2-107.2,22-109.2,23"/>
	<path class="st22" d="M-82,26.5c1.2-1.4,2.9-2.5,4.6-3.5c-2.1-1-4.4-1.9-6.8-2.6C-83.1,22.1-82.5,24.2-82,26.5"/>
	<path class="st9" d="M-82.1,26.7l0-0.2c-0.4-1.9-1-4.3-2.2-6.1l-0.1-0.2l0.2,0c2.2,0.6,4.4,1.5,6.8,2.6l0.1,0.1l-0.1,0.1
		c-1.7,1.1-3.3,2.1-4.6,3.5L-82.1,26.7z M-84,20.5c1.1,1.8,1.7,4,2.1,5.8c1.2-1.3,2.7-2.3,4.4-3.3C-79.8,21.9-81.9,21.1-84,20.5"/>
	<path class="st14" d="M-109.7,23.7c-0.4,1.7-0.6,4-0.4,6.1c1.6-1,3.4-1.8,5.3-2.5C-106.2,25.8-107.9,24.7-109.7,23.7
		C-109.7,23.7-109.7,23.7-109.7,23.7"/>
	<path class="st9" d="M-110.2,29.9v-0.1c-0.1-2.2,0-4.4,0.4-6.1l0,0c0,0,0,0,0.1,0l0,0l0,0c2.2,1.2,3.7,2.4,4.9,3.6l0.1,0.1l-0.1,0
		c-1.7,0.6-3.4,1.4-5.3,2.5L-110.2,29.9z M-109.7,23.8c-0.4,1.7-0.5,3.8-0.4,5.9c1.8-1,3.4-1.8,5.1-2.4
		C-106.1,26-107.6,24.9-109.7,23.8"/>
	<path class="st14" d="M-76.9,24.3c0-0.2-0.1-0.6-0.2-0.6c0,0,0,0,0,0c-1.7,1-3.4,2.1-4.7,3.5c0,0-0.1,0.1-0.1,0.1
		c1.9,0.7,3.6,1.5,5.1,2.4c0,0,0.1,0.1,0.1,0.1C-76.5,28-76.6,25.9-76.9,24.3"/>
	<path class="st9" d="M-76.7,29.9c-0.1,0-0.1,0-0.1-0.1l0,0c-1.6-1-3.4-1.8-5.1-2.4h0l0,0c-0.1-0.1,0-0.2,0.1-0.2l0,0
		c1.3-1.4,3.1-2.5,4.7-3.5c0,0,0,0,0.1,0c0.1,0,0.2,0.2,0.2,0.6c0,0,0,0.1,0,0.1c0.3,1.8,0.4,3.9,0.3,5.5L-76.7,29.9L-76.7,29.9
		C-76.6,29.9-76.6,29.9-76.7,29.9 M-81.8,27.2c1.7,0.6,3.4,1.4,5.1,2.4c0,0,0,0,0,0c0.1-1.9,0-4-0.3-5.4l0,0c0,0,0-0.1,0-0.1
		c0-0.1-0.1-0.4-0.1-0.5C-78.7,24.7-80.5,25.8-81.8,27.2C-81.8,27.2-81.8,27.2-81.8,27.2"/>
	<path class="st22" d="M-114.6,26.3C-114.6,26.4-114.7,26.4-114.6,26.3c0.7,0.4,1.4,0.8,2,1.3c0.6,0.4,1.2,0.9,1.7,1.4
		c0,0,0,0.1,0.1,0.1c-0.1-2,0.1-4,0.5-5.6C-111.8,24.3-113.3,25.3-114.6,26.3"/>
	<path class="st9" d="M-110.7,29.2c0,0-0.1,0-0.1-0.1c-0.5-0.5-1.1-1-1.7-1.4c-0.7-0.5-1.4-0.9-2.1-1.2l0,0v0c0-0.1,0.1-0.2,0.1-0.2
		h0c1.2-1,2.6-2,4.3-2.9l0.2-0.1l0,0.2C-110.6,25.2-110.7,27.1-110.7,29.2L-110.7,29.2L-110.7,29.2
		C-110.7,29.2-110.7,29.2-110.7,29.2 M-114.5,26.4c0.7,0.3,1.3,0.7,2,1.1c0.6,0.4,1.2,0.8,1.7,1.3c-0.1-1.8,0.1-3.7,0.4-5.3
		C-112,24.5-113.4,25.4-114.5,26.4L-114.5,26.4L-114.5,26.4"/>
	<path class="st14" d="M-114.7,27.1C-114.8,27.1-114.8,27.1-114.7,27.1c-0.3,2.2,0,4.4,0.4,6.2c1-1.3,2.4-2.3,3.8-3.3
		C-111.6,28.7-113.1,27.8-114.7,27.1"/>
	<path class="st9" d="M-114.4,33.4l0-0.2c-0.5-2-0.7-4.3-0.4-6.2c0-0.1,0-0.1,0.1-0.1h0h0c1.7,0.7,3.2,1.7,4.3,3l0.1,0.1l-0.1,0
		c-1.2,0.8-2.7,1.8-3.8,3.2L-114.4,33.4z M-114.7,27.2c-0.2,1.8-0.1,4,0.4,5.9c1.1-1.3,2.5-2.3,3.7-3.1
		C-111.7,28.8-113,27.9-114.7,27.2"/>
	<path class="st23" d="M-87,18.8l-13.1-0.4c0-0.1,0.1-0.4,0.2-0.8c0.5-1.7,2.2-5.4,6.5-5.3c1.9,0,3.2,0.8,4.1,1.7
		C-87.3,15.9-87,18.8-87,18.8"/>
	<path class="st23" d="M-93.4,12.3c1.9,0,3.2,0.8,4.1,1.7c1.9,1.9,2.2,4.8,2.2,4.8l-13.1-0.4c0-0.1,0.1-0.4,0.2-0.8
		C-99.3,15.8-97.7,12.2-93.4,12.3 M-93.4,11.6c-4.8-0.1-6.6,4-7.2,5.8c-0.1,0.4-0.2,0.7-0.2,0.8l-0.2,0.8l0.8,0
		c1.8-0.3,4-0.5,6.5-0.5c2.6,0.1,4.8,0.5,6.6,0.9c0.3,0,0.5,0,0.8,0l-0.1-0.8c0-0.1-0.4-3.1-2.4-5.2C-90,12.3-91.5,11.6-93.4,11.6"
		/>
	<path class="st24" d="M-86.3,19.5c-1.9-0.4-4.3-0.8-7.1-0.9c-3-0.1-5.5,0.2-7.6,0.6c0-0.3,0.1-0.6,0.2-1c0.1-0.3,0.2-0.5,0.3-0.8
		c1.1,0,7.2-0.3,9.4-1.6c0.5-0.3,2-1.3,1.8-1.9l0,0c0.5,0.3,1.5,0.9,2.3,2.3C-86.2,17.7-86.3,19-86.3,19.5"/>
	<path class="st22" d="M-76,29.5c1.1-1.1,2.5-2.1,4.1-2.8c-1.3-1.2-3-2.2-4.7-3.2C-76.1,25.3-76,27.4-76,29.5"/>
	<path class="st9" d="M-76.1,29.7v-0.2c0.1-2.2-0.1-4.2-0.5-5.9l0-0.2l0.2,0.1c1.4,0.8,3.2,1.9,4.7,3.2l0.1,0.1l-0.1,0
		c-1.5,0.6-2.9,1.6-4.1,2.8L-76.1,29.7z M-76.4,23.7c0.4,1.6,0.5,3.5,0.5,5.6c1.2-1.1,2.5-2,3.9-2.6C-73.4,25.5-75.1,24.5-76.4,23.7
		"/>
	<path class="st14" d="M-73.8,28.4c-0.7,0.5-1.5,1.1-2,1.8c1.4,0.9,2.9,2,3.9,3.3c0,0,0,0.1,0.1,0.1c0.5-1.8,0.7-4.3,0.5-6.5
		C-72.2,27.4-73.1,27.9-73.8,28.4"/>
	<path class="st9" d="M-71.8,33.6c-0.1,0-0.1-0.1-0.1-0.1v0c-1.1-1.4-2.6-2.4-3.9-3.3l-0.1,0l0-0.1c0.6-0.7,1.3-1.3,2-1.8
		c0.8-0.5,1.6-1,2.5-1.4l0.1,0l0,0.1C-71,29-71.2,31.4-71.8,33.6L-71.8,33.6L-71.8,33.6C-71.8,33.6-71.8,33.6-71.8,33.6 M-75.7,30.1
		c1.3,0.9,2.8,1.9,3.9,3.3c0.5-2.1,0.7-4.3,0.4-6.2c-0.8,0.3-1.6,0.8-2.4,1.3C-74.4,28.9-75.2,29.5-75.7,30.1"/>
	<path class="st22" d="M-70.8,33.4c0.2-0.1,0.4-0.3,0.4-0.5c0.1-0.3,0.1-0.5,0.2-0.8c0.1-0.3,0.2-0.5,0.3-0.8
		c0.3-0.8,0.6-1.6,0.3-2.3c-0.3-0.7-0.8-1.1-1.3-1.7c0,0,0,0,0,0c0.3,2.2,0,4.7-0.4,6.6C-71.2,33.7-71,33.6-70.8,33.4"/>
	<path class="st9" d="M-71.5,34l0-0.2c0.3-1.1,0.8-3.8,0.4-6.5c0,0,0-0.1,0-0.1l0,0l0.1,0v0c0.1,0.1,0.2,0.2,0.3,0.3
		c0.4,0.4,0.8,0.8,1,1.3c0.3,0.7,0.1,1.4-0.2,2.1c0,0.1-0.1,0.2-0.1,0.3c-0.1,0.3-0.2,0.5-0.3,0.8c0,0.1-0.1,0.3-0.1,0.4
		c0,0.2-0.1,0.3-0.1,0.5c-0.1,0.2-0.3,0.4-0.5,0.6c-0.2,0.2-0.4,0.3-0.5,0.4L-71.5,34z M-70.9,27.5c0.3,2.5-0.1,5-0.4,6.2
		c0.1-0.1,0.2-0.2,0.3-0.3c0.1-0.1,0.3-0.3,0.4-0.5c0-0.1,0.1-0.3,0.1-0.4c0-0.1,0-0.3,0.1-0.4c0.1-0.2,0.2-0.5,0.3-0.8
		c0-0.1,0.1-0.2,0.1-0.3c0.2-0.7,0.5-1.4,0.2-2c-0.2-0.5-0.6-0.9-0.9-1.3C-70.8,27.6-70.8,27.6-70.9,27.5 M-70.9,27.3L-70.9,27.3
		L-70.9,27.3z"/>
	<path class="st22" d="M-71.2,34.4c0.4,0.5,0.6,1.2,0.8,1.9c0.2-0.8,0.2-1.9,0.2-2.8C-70.5,33.9-70.9,34.1-71.2,34.4"/>
	<path class="st22" d="M-114.7,33.8c-0.5-1.9-0.8-4.3-0.6-6.6c0,0,0,0,0,0c-0.4,0.5-1,1.1-1.2,1.7c-0.3,0.8,0.1,1.6,0.3,2.3
		c0.1,0.3,0.2,0.5,0.3,0.8c0.1,0.3,0.1,0.6,0.2,0.8c0.1,0.2,0.3,0.4,0.5,0.5C-115,33.6-114.8,33.7-114.7,33.8"/>
	<path class="st9" d="M-114.5,34l-0.2-0.1c-0.1-0.1-0.3-0.2-0.5-0.4c-0.2-0.1-0.4-0.3-0.5-0.5c-0.1-0.1-0.1-0.3-0.1-0.5
		c0-0.1-0.1-0.3-0.1-0.4c-0.1-0.2-0.2-0.5-0.3-0.8c0-0.1-0.1-0.2-0.1-0.3c-0.3-0.7-0.5-1.4-0.2-2.1c0.2-0.5,0.6-0.9,0.9-1.4
		c0.1-0.1,0.2-0.2,0.3-0.3v0l0.1,0l0,0c0,0,0,0.1,0,0.1c-0.3,2.7,0.3,5.5,0.6,6.5L-114.5,34z M-115.3,27.5c0,0.1-0.1,0.1-0.2,0.2
		c-0.3,0.4-0.7,0.8-0.9,1.3c-0.3,0.7,0,1.3,0.3,2c0,0.1,0.1,0.2,0.1,0.3c0.1,0.3,0.2,0.5,0.3,0.8c0,0.1,0.1,0.3,0.1,0.4
		c0,0.2,0.1,0.3,0.1,0.4c0.1,0.2,0.3,0.4,0.4,0.5s0.3,0.2,0.3,0.3C-115.1,32.5-115.6,30-115.3,27.5 M-115.3,27.3L-115.3,27.3
		L-115.3,27.3"/>
	<path class="st22" d="M-115.8,33.6c0.1,0.9,0.1,1.9,0.3,2.8c0.1-0.8,0.3-1.4,0.7-1.9C-115.1,34.1-115.5,33.9-115.8,33.6"/>
	<path class="st25" d="M-93.4,61.4c-0.1,0-0.3,0-0.4,0c-0.8,0-7.6-0.3-12.7-5.7c-5.3-5.6-6.5-14.5-3.1-22.6l1.5,0.6
		c-3.1,7.6-2,15.8,2.8,20.9c4.7,5,11.3,5.2,11.5,5.2c6.8,0.1,11.3-4.1,12.5-5.4c4.8-5.2,6-13.3,2.9-20.8l1.5-0.6
		c3.3,8,2,16.9-3.2,22.5C-81.4,56.9-86.2,61.4-93.4,61.4"/>
	<path class="st25" d="M-90,54.9c0,1.9-1.6,3.5-3.5,3.5s-3.5-1.6-3.5-3.5c0-0.3,0-0.5,0.1-0.7c0.3,1.6,1.7,2.7,3.4,2.7
		s3-1.2,3.4-2.7C-90,54.4-90,54.7-90,54.9"/>
	<path class="st25" d="M-95.5,41.1c-0.1,0-0.1,0-0.2,0c-1.1-0.5-2.3-0.8-3.5-1c-1.3-0.2-2.7-0.1-4,0.2c-0.3,0-0.5-0.1-0.6-0.4
		c0-0.3,0.1-0.5,0.4-0.6c1.4-0.3,2.9-0.4,4.3-0.2c1.3,0.2,2.6,0.5,3.8,1.1c0.3,0.1,0.3,0.4,0.3,0.6C-95.1,41-95.3,41.1-95.5,41.1"/>
	<path class="st9" d="M-101.3,39.1v-3.9c0.1-1.3,1.1-2.3,2.2-2.4c1.4-0.2,2.8,0.8,3,2.4v4.9"/>
	<path class="st25" d="M-96,40.6c-0.3,0-0.5-0.2-0.5-0.5v-4.8c-0.1-0.6-0.4-1.2-0.9-1.6c-0.5-0.3-1-0.5-1.5-0.4
		c-0.9,0.1-1.7,1-1.8,2v3.9c0,0.3-0.2,0.5-0.5,0.5c-0.3,0-0.5-0.2-0.5-0.5v-4c0.2-1.5,1.3-2.7,2.6-2.9c0.8-0.1,1.6,0.1,2.2,0.6
		c0.7,0.5,1.2,1.4,1.3,2.2v0.1v4.9C-95.5,40.3-95.8,40.6-96,40.6"/>
	<path class="st25" d="M-97.4,35.5c-0.2-0.6-0.6-1.2-0.9-1.2c-0.4,0.1-0.2,1.9-0.6,2c-0.3,0.1-0.6-1-0.9-1c-0.4,0.1-0.8,2.5,0.3,3.1
		c0.5,0.3,1.2,0.1,1.6-0.2C-97,37.6-97.1,36.2-97.4,35.5 M-99.4,37.8c-0.3,0-0.5-0.2-0.5-0.5s0.2-0.5,0.5-0.5c0.3,0,0.5,0.2,0.5,0.5
		S-99.1,37.8-99.4,37.8"/>
	<path class="st9" d="M-83,39.8c-1-0.2-2.4-0.4-4.2-0.2c-1.6,0.2-2.8,0.6-3.6,1"/>
	<path class="st25" d="M-90.8,41.1c-0.2,0-0.4-0.1-0.4-0.3c-0.1-0.3,0-0.5,0.3-0.6c1.2-0.5,2.5-0.9,3.8-1.1c1.4-0.2,2.9-0.1,4.3,0.2
		c0.3,0,0.4,0.3,0.4,0.6c0,0.3-0.3,0.4-0.6,0.4c-1.3-0.3-2.7-0.3-4-0.2c-1.2,0.2-2.4,0.5-3.5,1C-90.7,41.1-90.7,41.1-90.8,41.1"/>
	<path class="st9" d="M-85,39.1v-3.9c-0.1-1.3-1.1-2.3-2.2-2.4c-1.4-0.2-2.8,0.8-3,2.4v4.9"/>
	<path class="st25" d="M-90.3,40.6c-0.3,0-0.5-0.2-0.5-0.5v-4.9c0.1-0.9,0.6-1.7,1.3-2.2c0.7-0.5,1.5-0.7,2.2-0.6
		c1.4,0.2,2.5,1.4,2.6,2.9v0v3.9c0,0.3-0.2,0.5-0.5,0.5s-0.5-0.2-0.5-0.5v-3.9c-0.1-1-0.9-1.9-1.8-2c-0.5-0.1-1.1,0.1-1.5,0.4
		c-0.5,0.4-0.8,0.9-0.9,1.6v4.8C-89.8,40.3-90,40.6-90.3,40.6"/>
	<path class="st25" d="M-86.5,35.4c-0.3,0-0.6,1-0.9,1c-0.4-0.1-0.2-1.9-0.6-2c-0.3-0.1-0.7,0.6-0.9,1.2c-0.3,0.7-0.4,2.1,0.5,2.8
		c0.4,0.3,1.1,0.5,1.6,0.2C-85.7,37.9-86.1,35.5-86.5,35.4 M-86.9,37.8c-0.3,0-0.5-0.2-0.5-0.5s0.2-0.5,0.5-0.5
		c0.3,0,0.5,0.2,0.5,0.5C-86.4,37.5-86.6,37.8-86.9,37.8"/>
	<path d="M-86.6,57.2L-86.6,57.2L-86.6,57.2"/>
	<path d="M-86.6,57.2L-86.6,57.2L-86.6,57.2"/>
	<path d="M-86.6,57.2L-86.6,57.2L-86.6,57.2"/>
	<path d="M-86.6,57.2L-86.6,57.2L-86.6,57.2"/>
	<path d="M-86.6,57.2L-86.6,57.2L-86.6,57.2"/>
	<path d="M-86.6,57.2L-86.6,57.2L-86.6,57.2"/>
	<path d="M-86.6,57.2L-86.6,57.2L-86.6,57.2"/>
	<path d="M-86.6,57.2L-86.6,57.2L-86.6,57.2"/>
	<path d="M-86.6,57.2L-86.6,57.2L-86.6,57.2"/>
	<path class="st18" d="M-67.9,52.5c-0.7,2-2,5-4.5,8.1c-2.5,3.1-5.2,5.1-7.1,6.2c-4.5-1.8-9.1-3.7-13.6-5.5c1.6,0,4.9-0.3,8.4-2.2
		c3.7-2.1,5.7-4.9,6.5-6.3C-74.8,52.6-71.4,52.6-67.9,52.5"/>
	<path d="M-86.6,57.1L-86.6,57.1L-86.6,57.1"/>
	<path class="st14" d="M-79.8,56.3c3.1,0.6,6,1.3,9.2,1.7c-0.3-1.9-0.4-3.6-0.7-5.5c-2,0.3-3.8,0.4-5.6,0.4
		C-77.6,54.2-78.7,55.3-79.8,56.3"/>
	<path class="st14" d="M-86.1,60.7c-1.4,0.7-2.4,1-2.1,1.3c0.2,0.2,0.4,0.3,0.7,0.4c1.7,1,3.5,1.9,5.3,2.7c0.4-2.6,0.7-5.2,1.1-7.8
		c-0.1,0.1-0.3,0.4-0.6,0.6C-82.2,58.4-83.4,59.4-86.1,60.7"/>
	<path class="st22" d="M-81.3,65.2c1.6-0.6,3.6-1.5,5.8-2.9c1.7-1.1,3.1-2.3,4.1-3.3c-1.3-0.3-2.7-0.6-4.1-0.9
		c-1.6-0.3-3.1-0.6-4.7-0.9C-80.7,59.8-81,62.5-81.3,65.2"/>
	<path class="st18" d="M-119,52.5c0.7,2,2,5,4.5,8.1c2.5,3.1,5.2,5.1,7.1,6.2c4.5-1.8,9.1-3.7,13.6-5.5c-1.6,0-4.9-0.3-8.4-2.2
		c-3.7-2.1-5.7-4.9-6.5-6.3C-112.1,52.6-115.5,52.6-119,52.5"/>
	<path class="st14" d="M-110,52.9c-1.8,0-3.6-0.1-5.6-0.4c-0.3,1.9-0.3,3.6-0.7,5.5c3.2-0.4,6.1-1.1,9.2-1.7
		C-108.2,55.3-109.3,54.2-110,52.9"/>
	<path class="st14" d="M-105.2,58c-0.3-0.3-0.5-0.5-0.6-0.6c0.3,2.6,0.6,5.2,1.1,7.8c1.8-0.8,3.6-1.8,5.3-2.7
		c0.2-0.1,0.5-0.2,0.7-0.4c0.2-0.3-0.8-0.7-2.1-1.3C-103.5,59.4-104.7,58.4-105.2,58"/>
	<path class="st22" d="M-106.7,57.2c-1.5,0.3-3.1,0.6-4.7,0.9c-1.4,0.3-2.7,0.6-4.1,0.9c1.1,1,2.4,2.2,4.1,3.3
		c2.1,1.4,4.1,2.3,5.8,2.9C-105.9,62.5-106.1,59.8-106.7,57.2"/>
	<path class="st26" d="M-84.8,48.2c-3.5-4.5-6.8-4.6-8.5-4.1c-1.8-0.5-5-0.6-8.7,3.8c-4.4,5.2-9.4,1.7-9.4,1.7s5.8,5.3,12.4,3.3
		c0.9-0.3,1.8-0.9,2.5-1.7c0,0-0.3,0.5-0.8,1c0.2-0.1,0.3-0.2,0.5-0.3c1.4-0.8,2.5-1.6,3.3-2.3c0,1.7,1.4,2.8,1.4,2.8L-92,51
		c0.6,0.7,1.7,1.1,2.1,1.3c2.8,1.6,5.6,1.6,8,1.1c-0.5,0-1.4-0.2-2.7-0.7c0,0,2.5,0.5,4.1,0.3c3-1,5.1-2.8,5.1-2.8
		S-80.6,53.6-84.8,48.2"/>
	<path class="st19" d="M-95.1,43.9c0.7,0,1.3,0.1,1.7,0.3c0.4-0.1,1-0.2,1.6-0.2c1.8,0,4.3,0.8,7,4.3c1.9,2.4,3.9,3.1,5.6,3.1
		c2.1,0,3.7-1,3.7-1s-2.1,1.8-5.1,2.8c-0.3,0-0.5,0-0.8,0c-1.5,0-3.3-0.4-3.3-0.4c1.4,0.5,2.3,0.6,2.7,0.7c-0.8,0.2-1.8,0.3-2.7,0.3
		c-1.7,0-3.5-0.4-5.3-1.4c-0.5-0.2-1.5-0.6-2.1-1.3l-0.1,1.5c0,0-1.4-1.1-1.4-2.8c-0.8,0.7-1.9,1.5-3.3,2.3
		c-0.2,0.1-0.3,0.2-0.5,0.3c0.5-0.5,0.8-1,0.8-1c-0.7,0.8-1.6,1.4-2.5,1.7c-1.1,0.3-2.1,0.5-3.1,0.5c-5.2,0-9.3-3.7-9.3-3.7
		s1.6,1.2,3.9,1.2c1.7,0,3.7-0.6,5.5-2.9C-99.3,44.7-96.9,43.9-95.1,43.9 M-95.1,43.6v0.3V43.6c-2.5,0-4.9,1.4-7.2,4.2
		c-1.5,1.8-3.3,2.8-5.3,2.8c-2.1,0-3.7-1.1-3.7-1.1l-0.4,0.5c0.2,0.2,4.2,3.8,9.6,3.8c1.1,0,2.2-0.2,3.2-0.5l0,0l0,0
		c0.1,0,0.2-0.1,0.4-0.1l-0.2,0.3l1.6-0.8c0.2-0.1,0.4-0.2,0.5-0.3c1.1-0.6,2.1-1.3,2.9-1.9c0.3,1.5,1.4,2.4,1.4,2.4l0.5,0.4l0-0.6
		l0.1-0.9c0.6,0.5,1.3,0.8,1.7,0.9c1.7,1,3.6,1.4,5.5,1.4c0.9,0,1.8-0.1,2.8-0.3l2.1-0.5l-0.4,0c2.9-1,4.8-2.6,4.9-2.7l-0.4-0.5
		c0,0-1.6,1-3.6,1c-2.1,0-3.8-1-5.4-2.9c-2.8-3.6-5.5-4.4-7.2-4.4c-0.5,0-1.1,0.1-1.6,0.2C-93.9,43.7-94.5,43.6-95.1,43.6"/>
	<path class="st26" d="M-90.7,45.2c3.6,0.1,4,2.8,4,2.8C-87.9,46.2-90.7,45.2-90.7,45.2"/>
	<path class="st19" d="M-90.7,45.2c3.6,0.1,4,2.8,4,2.8C-87.9,46.2-90.7,45.2-90.7,45.2 M-92.7,44.9l1.9,0.7c0,0,2.6,0.9,3.8,2.7
		l0.8,1.1l-0.2-1.4c0,0-0.1-0.8-0.7-1.6c-0.5-0.7-1.6-1.5-3.6-1.6L-92.7,44.9z"/>
	<path class="st26" d="M-95.7,44.9c0,0-2.8,0.2-4.9,3.7C-100.6,48.6-98.5,46.3-95.7,44.9"/>
	<path class="st19" d="M-95.7,44.9c-2.8,1.4-4.9,3.7-4.9,3.7C-98.5,45.1-95.7,44.9-95.7,44.9 M-94.1,44.5l-1.6,0.1
		c-0.1,0-3,0.2-5.2,3.8l-1.6,2.6l2.1-2.2c0,0,2.2-2.3,4.9-3.6L-94.1,44.5z"/>
	<path class="st23" d="M-71.5,38.9c-0.2-0.3-0.4-0.5-0.6-0.7c-8.7-9.9-21.5-9.9-21.5-9.9h0c-6.6,0-13.9,2.9-21.9,10.3
		c-0.1-0.1-0.3-0.2-0.5-0.5c-0.1-0.2-0.2-0.4-0.2-0.5c8.1-7.6,15.6-10.5,22.5-10.5h0c7.4,0,13,3.2,15,4.4c2.1,1.2,4.9,3.2,7.8,6.4
		c-0.1,0.1-0.2,0.3-0.3,0.4C-71.2,38.6-71.4,38.7-71.5,38.9"/>
	<path class="st14" d="M-72.5,67.3c-0.2-0.2-2.4,1.2-7.1,0.9c-3.7-0.2-5.4-1.8-7.1-3.3c-1.7-1.6-3.1-1.2-4.1,0.1
		c-1.3,1.6-0.3,3.5,0.6,4.1c1.3,0.9,3.5,2.3,8.7,2.3C-74.7,71.4-72.3,67.5-72.5,67.3 M-90.3,65.4c0,0,0.3-1,1.6-1
		c1.3,0,2.5,1.9,3.2,2.2c-1-0.3-2-1.6-2.9-1.7C-89.8,64.7-90.3,65.4-90.3,65.4 M-81.3,71c-4.1,0-6.3-0.9-7.7-1.7
		c-0.1,0-0.1-0.1-0.1-0.1c0,0,0.1,0,0.1,0.1c0.5,0.3,2.9,1.4,7.8,1.4c4.1,0,6.3-1.3,6.3-1.3C-76.4,70.2-78.5,71-81.3,71"/>
	<path class="st25" d="M-91.3,65.3c-0.6-0.3-1.6-1-2.3-2.3c-0.7-1.3-0.6-2.5-0.6-3.2l0.8,0.1c-0.1,0.5-0.1,1.6,0.5,2.7
		c0.6,1.1,1.5,1.7,1.9,1.9L-91.3,65.3z"/>
	<path class="st14" d="M-105.7,71.4c5.2,0,7.5-1.4,8.7-2.3c0.9-0.6,1.9-2.5,0.6-4.1c-1-1.3-2.4-1.7-4.1-0.1
		c-1.7,1.6-3.4,3.1-7.1,3.3c-4.7,0.3-6.9-1.1-7.1-0.9S-112.4,71.4-105.7,71.4 M-98.5,64.9c-0.9,0.2-1.9,1.4-2.9,1.7
		c0.7-0.3,1.9-2.2,3.2-2.2s1.6,1,1.6,1S-97.3,64.7-98.5,64.9 M-112.1,69.4c0,0,2.2,1.3,6.3,1.3c4.9,0,7.3-1.1,7.8-1.4
		c0,0,0.1,0,0.1-0.1c0,0,0,0-0.1,0.1c-1.4,0.8-3.7,1.7-7.7,1.7C-108.6,71-110.7,70.2-112.1,69.4"/>
	<path class="st25" d="M-95.8,65.3l-0.4-0.7c0.5-0.3,1.4-0.8,1.9-1.9c0.6-1.1,0.5-2.2,0.5-2.7l0.8-0.1c0.1,0.6,0.1,1.9-0.6,3.2
		C-94.2,64.3-95.2,65-95.8,65.3"/>
	<path class="st27" d="M-95.4,66.4c0-0.3-0.1-1-0.6-1.6c-0.4-0.5-0.8-0.8-1.1-0.9"/>
	<path class="st14" d="M-95.4,66.8c-0.2,0-0.4-0.2-0.4-0.4c0-0.4-0.1-0.9-0.5-1.4c-0.3-0.3-0.6-0.6-0.9-0.8
		c-0.2-0.1-0.3-0.3-0.2-0.5c0.1-0.2,0.3-0.3,0.5-0.2c0.5,0.3,0.9,0.6,1.2,1c0.5,0.7,0.6,1.4,0.7,1.9C-95,66.6-95.2,66.7-95.4,66.8
		C-95.4,66.8-95.4,66.8-95.4,66.8"/>
	<path class="st27" d="M-91.7,66.4c0-0.3,0.1-1,0.6-1.6c0.4-0.5,0.8-0.8,1.1-0.9"/>
	<path class="st14" d="M-91.7,66.8L-91.7,66.8c-0.3,0-0.4-0.2-0.4-0.4c0-0.5,0.2-1.2,0.7-1.9c0.3-0.4,0.7-0.8,1.2-1
		c0.2-0.1,0.4,0,0.5,0.2c0.1,0.2,0,0.4-0.2,0.5c-0.4,0.2-0.7,0.5-0.9,0.8c-0.4,0.5-0.5,1.1-0.5,1.4C-91.3,66.6-91.5,66.8-91.7,66.8"
		/>
	<path class="st14" d="M-124.9,86.4c-0.7,2.9-3.2,4.8-6.2,4.8c-3.8,0-6.5-3.1-6.5-6.4c0-3.1,2.4-6.3,6.4-6.3c3.8,0,5.9,3,6.2,4.9
		h-3.3c-0.3-0.9-1.3-2.1-3-2.1c-2.1,0-3.3,1.8-3.3,3.6c0,1.9,1.3,3.6,3.3,3.6c1.9,0,2.7-1.6,3-2.1H-124.9z"/>
	<path class="st14" d="M-123.4,78.7h2.7v3.9h0c0.5-0.8,1.4-1.2,2.4-1.2c0.9,0,1.9,0.3,2.5,1c0.8,0.9,0.9,1.7,0.9,3.4V91h-2.7v-5
		c0-0.5,0-1.9-1.5-1.9c-1.5,0-1.5,1.4-1.5,1.8V91h-2.7C-123.4,91-123.4,78.7-123.4,78.7z"/>
	<path class="st14" d="M-110.1,80.8h-2.7v-2.1h2.7V80.8z M-110.1,91h-2.7v-9.2h2.7V91z"/>
	<rect x="-108.2" y="78.7" class="st14" width="2.7" height="12.3"/>
	<rect x="-103.4" y="78.7" class="st14" width="2.7" height="12.3"/>
	<path class="st14" d="M-95.9,80.8h-2.7v-2.1h2.7V80.8z M-95.9,91h-2.7v-9.2h2.7V91z"/>
	<path class="st14" d="M-89,82.3c-0.1-0.4-0.2-1.2-1.1-1.2c-0.5,0-1.1,0.4-1.1,1c0,0.7,0.3,0.9,2.5,1.9c2.3,1,2.9,2.1,2.9,3.5
		c0,1.8-1,3.8-4.3,3.8c-3.6,0-4.4-2.3-4.4-3.9v-0.4h3.1c0,1.4,0.9,1.7,1.3,1.7c0.8,0,1.2-0.6,1.2-1.2c0-0.8-0.5-1-2.4-1.8
		c-0.9-0.3-3-1.2-3-3.5c0-2.3,2.2-3.6,4.3-3.6c1.2,0,2.5,0.5,3.3,1.4c0.7,0.9,0.8,1.7,0.8,2.4L-89,82.3L-89,82.3z"/>
	<polygon class="st14" points="-82.5,81.8 -81.1,87.5 -81,87.5 -79.5,81.8 -77.2,81.8 -75.7,87.5 -75.7,87.5 -74.3,81.8 -71.4,81.8 
		-74.3,91 -76.8,91 -78.4,85 -78.4,85 -79.9,91 -82.5,91 -85.3,81.8 	"/>
	<path class="st14" d="M-61.2,91h-2.7v-1h0c-0.5,0.9-1.6,1.3-2.7,1.3c-2.9,0-4.6-2.3-4.6-4.9c0-3,2.2-4.9,4.6-4.9
		c1.5,0,2.4,0.7,2.7,1.3h0v-1h2.7V91z M-66.2,88.7c1.7,0,2.3-1.5,2.3-2.4c0-1.1-0.8-2.3-2.3-2.3c-1.6,0-2.3,1.3-2.3,2.4
		C-68.5,87.3-67.9,88.7-66.2,88.7"/>
	<path class="st14" d="M-58.8,81.8h2.6v1h0h0c0.5-0.7,1.5-1.3,2.9-1.3c3.3,0,4.5,2.9,4.5,5c0,2.7-1.9,4.8-4.5,4.8
		c-1.6,0-2.4-0.8-2.8-1.1V94h-2.7V81.8z M-51.6,86.4c0-1.1-0.8-2.4-2.3-2.4c-1.5,0-2.3,1.3-2.3,2.4c0,1.2,0.9,2.3,2.3,2.3
		C-52.5,88.7-51.6,87.5-51.6,86.4"/>
</g>
</svg>
