<?xml version="1.0" encoding="utf-8"?>
<!-- Generator: Adobe Illustrator 19.1.0, SVG Export Plug-In . SVG Version: 6.00 Build 0)  -->
<svg version="1.1" xmlns="http://www.w3.org/2000/svg" xmlns:xlink="http://www.w3.org/1999/xlink" x="0px" y="0px"
	 viewBox="-177 31 35 35" style="enable-background:new -177 31 35 35;" xml:space="preserve">
<style type="text/css">
	.st0{fill:#EF2020;}
	.st1{display:none;}
	.st2{display:inline;}
	.st3{fill:#FB8681;}
	.st4{fill:#15181A;}
	.st5{fill:#F8B1AE;}
	.st6{fill:#DE5852;}
	.st7{fill:#CDED6A;}
	.st8{fill:#AFCC47;}
	.st9{fill:#F3F38B;}
	.st10{fill:#FFFFFF;}
	.st11{fill:#EFD567;}
	.st12{fill:#16191B;}
	.st13{fill:#F4FFB3;}
	.st14{fill:#FFB77B;}
	.st15{fill:#DA251D;}
	.st16{fill:#F8CEA0;}
	.st17{fill:#F6C592;}
	.st18{fill:#F4BB87;}
	.st19{fill:#013E51;}
	.st20{fill:#006280;}
	.st21{fill:#003D4F;}
	.st22{fill:#013E50;}
	.st23{fill:#FFD742;}
	.st24{fill:#0E6B8E;}
	.st25{fill:#0C5272;}
	.st26{fill:#003E52;}
	.st27{fill:#00384C;}
	.st28{fill:#D9272E;}
</style>
<g id="Layer_1">
	<g transform="translate(-2472 -40)">
		<circle class="st0" cx="2312.5" cy="88.5" r="17.5"/>
		<g transform="translate(2477.294 45.292)" class="st1">
			<g transform="translate(0 0.757)" class="st2">
				<g transform="translate(0 0)">
					<g transform="translate(0.521 0.523)">
						<path class="st3" d="M-169.8,39.2c-1.3-0.1-2.6-0.5-3.7-1.1c-1.4-0.7-3.1-1.8-3.4-2.7c-0.1-0.2-0.1-0.5,0.1-0.7
							c0.3-0.4,0.7-0.6,1.2-0.5c0.1,0,0.1,0,0.2,0c-0.3-0.4-0.3-1,0-1.4c0.2-0.2,0.5-0.3,0.8-0.3c0.2,0,0.4,0,0.6,0.1
							c-0.2-0.5,0-1,0.4-1.4c0.2-0.1,0.3-0.2,0.5-0.2c1,0,2.4,1.6,3.3,3.1c0.8,1.3,1.7,3.2,1.5,4.2c0,0.2-0.1,0.4-0.2,0.5
							c-0.1,0.1-0.2,0.2-0.3,0.2C-169.2,39.2-169.5,39.3-169.8,39.2z"/>
					</g>
					<path class="st4" d="M-172.7,32c0.6,0,1.8,1.2,2.9,2.8c1,1.6,1.6,3.2,1.4,3.9c0,0.1,0,0.2-0.1,0.2c0,0-0.1,0.1-0.2,0.1
						c-0.2,0.1-0.4,0.1-0.6,0.1c-1.2-0.1-2.4-0.5-3.5-1c-2-1-3.4-2.2-3.1-2.7c0.1-0.2,0.4-0.3,0.7-0.3c0.4,0,0.8,0.1,1.2,0.2
						c-0.6-0.8-0.8-1.5-0.6-1.8c0.1-0.1,0.2-0.1,0.4-0.1c0.5,0.1,1,0.2,1.4,0.5c-0.4-1-0.4-1.7-0.1-1.9
						C-172.9,32.1-172.8,32-172.7,32 M-172.7,31L-172.7,31c-0.3,0-0.6,0.1-0.8,0.3c-0.4,0.3-0.6,0.7-0.6,1.2h0
						c-0.8,0-1.5,0.6-1.5,1.4c0,0.1,0,0.2,0,0.4c-0.5,0.1-0.9,0.3-1.2,0.7c-0.2,0.4-0.2,0.8-0.1,1.2c0.4,1.4,2.9,2.7,3.7,3
						c1.2,0.6,2.6,1,3.9,1.1c0.4,0,0.7-0.1,1.1-0.2c0.2-0.1,0.4-0.2,0.5-0.4c0.2-0.2,0.3-0.5,0.3-0.8c0.3-1.5-1.1-3.9-1.5-4.6
						C-169.6,33.3-171.2,31-172.7,31L-172.7,31z"/>
				</g>
				<g transform="translate(3.93 1.061)">
					<path class="st5" d="M-174.3,33.5c-0.7-0.9-1.6-1.6-2.7-2.2c0-0.1,0.1-0.2,0.2-0.2c0.5-0.4,1.9,0.9,3.1,2.8
						c0.3,0.5,0.6,1.1,0.9,1.7C-173.3,34.8-173.8,34.1-174.3,33.5z"/>
				</g>
				<g transform="translate(1.043 2.561)">
					<path class="st6" d="M-177,32.9c0.2-0.3,0.9-0.3,2-0.1c-0.6-0.8-0.8-1.5-0.6-1.8c0,0,0.1-0.1,0.1-0.1l6,5.3
						c0,0.1,0,0.1-0.1,0.1c0,0-0.1,0.1-0.2,0.1c-0.5,0.3-2.3,0-4.1-0.9C-175.9,34.7-177.3,33.5-177,32.9z"/>
				</g>
			</g>
			<g transform="translate(1.971)" class="st2">
				<path class="st7" d="M-160.9,34.7c-0.8-1-1.9-1.9-3.1-2.4c-2.7-1.3-5.9-1-8.3,0.8c-1.2,0.9-2.2,2.2-2.8,3.6
					c-0.9,2.2-1.4,4.6-1.4,6.9c-0.1,2.6,0.1,5.2,0.6,7.8c0.1,0.8,0.4,1.6,0.9,2.2c0.3,0.3,0.7,0.4,1.1,0.4c1-0.1,1-1.4,1-2.2
					c-0.1-0.6,0.1-1.1,0.4-1.6c0.2-0.2,0.4-0.3,0.7-0.2c0.2,0.1,0.3,0.2,0.4,0.4c0.4,0.7,0.2,1.5,0.2,2.2c0,0.5,0,1,0.1,1.6
					c0,0.3,0.1,0.6,0.3,0.8c0.4,0.5,1.2,0.6,1.7,0.2c0,0,0.1-0.1,0.1-0.1c0.3-0.5,0.5-1.2,0.5-1.8c0-0.5,0.1-0.9,0.2-1.4
					c0.1-0.4,0.4-0.8,0.8-0.9c0.4-0.1,0.9,0.1,1.1,0.5c0.2,0.4,0.3,0.8,0.3,1.2c0,0.5,0.2,1,0.5,1.4c0.3,0.3,0.8,0.5,1.2,0.4
					c1.2-0.3,0.9-1.6,1.2-2.6c0.1-0.3,0.4-0.6,0.7-0.5c0.2,0,0.3,0.1,0.4,0.2c0.3,0.4,0.4,0.8,0.5,1.3c0,0.4,0.2,0.8,0.5,1
					c0.3,0.1,0.6,0.2,0.9,0.1c1-0.3,1.3-1.5,1.5-2.3c0.7-3.4,0.9-7,0.4-10.5C-158.7,38.9-159.5,36.7-160.9,34.7z"/>
				<path class="st4" d="M-169.9,56L-169.9,56c-0.6,0-1.1-0.3-1.4-0.7c-0.2-0.3-0.4-0.7-0.4-1.1c-0.1-0.4-0.1-0.8-0.1-1.2
					c0-0.1,0-0.3,0-0.4c0-0.2,0-0.5,0-0.7c0.1-0.4,0-0.9-0.1-1.2c0-0.1-0.1-0.1-0.2-0.1c0,0-0.1,0-0.1,0c-0.2,0.3-0.3,0.7-0.2,1.1
					c0,0.1,0,0.1,0,0.2s0,0.1,0,0.2c0,0.8-0.1,2.4-1.5,2.5c-0.6,0-1.1-0.2-1.5-0.6c-0.6-0.7-1-1.5-1.1-2.4c-0.5-2.6-0.7-5.3-0.6-7.9
					c0-2.4,0.5-4.9,1.4-7.1c0.6-1.5,1.6-2.9,2.9-3.9c3.9-2.7,9.2-2,12.1,1.8l0,0c1.5,2,2.4,4.3,2.6,6.8c0.4,3.5,0.3,7.1-0.4,10.6
					c-0.1,0.6-0.5,2.3-1.8,2.7c-0.4,0.1-0.9,0.1-1.3-0.2c-0.5-0.3-0.7-0.8-0.8-1.4c0-0.4-0.1-0.7-0.3-1c0-0.1-0.1-0.1-0.1-0.1
					s-0.1,0-0.1,0.1c-0.1,0.2-0.1,0.5-0.1,0.7c-0.1,0.8-0.2,1.8-1.4,2.2c-0.6,0.2-1.3,0-1.7-0.5c-0.4-0.5-0.6-1.1-0.6-1.7
					c0-0.3-0.1-0.7-0.2-1c-0.1-0.2-0.3-0.3-0.6-0.3c-0.1,0-0.3,0.3-0.4,0.5c-0.1,0.3-0.1,0.6-0.1,0.9c0,0.1,0,0.3,0,0.4
					c0,0.1,0,0.2,0,0.3c0,0.7-0.2,1.3-0.6,1.9C-168.9,55.8-169.4,56-169.9,56z M-172,49.5c0.1,0,0.3,0,0.4,0.1
					c0.3,0.1,0.5,0.3,0.7,0.6c0.3,0.6,0.4,1.2,0.3,1.9c0,0.2,0,0.4,0,0.6c0,0.1,0,0.3,0,0.4c0,0.4,0,0.7,0.1,1.1
					c0,0.2,0.1,0.4,0.2,0.6c0.1,0.2,0.3,0.2,0.5,0.2c0.2,0,0.4-0.1,0.6-0.2c0.2-0.4,0.3-0.8,0.3-1.3c0-0.1,0-0.2,0-0.3
					c0-0.1,0-0.2,0-0.4c0-0.4,0.1-0.7,0.1-1.1c0.1-0.6,0.6-1.1,1.2-1.3c0.7-0.1,1.3,0.2,1.7,0.8c0.2,0.4,0.4,0.9,0.4,1.4
					c0,0.4,0.1,0.8,0.4,1.1c0.2,0.2,0.4,0.3,0.7,0.2c0.5-0.1,0.6-0.5,0.7-1.3c0-0.3,0.1-0.6,0.2-0.9c0.1-0.4,0.5-0.7,0.9-0.8
					c0.4-0.1,0.9,0.1,1.1,0.4c0.3,0.4,0.5,1,0.6,1.5c0.1,0.3,0.1,0.6,0.3,0.7c0.1,0.1,0.3,0.1,0.5,0.1c0.5-0.1,0.9-0.8,1.1-1.9
					c0.7-3.4,0.9-6.9,0.4-10.3c-0.2-2.3-1.1-4.4-2.4-6.3l0,0c-2.6-3.3-7.3-4-10.7-1.6c-1.2,0.9-2.1,2.1-2.6,3.4
					c-0.9,2.1-1.3,4.4-1.3,6.8c-0.1,2.6,0.1,5.1,0.6,7.7c0.1,0.7,0.4,1.4,0.8,1.9c0.2,0.2,0.4,0.3,0.7,0.3c0.4,0,0.5-0.6,0.5-1.5
					c0-0.1,0-0.1,0-0.2c0-0.1,0-0.1,0-0.2c-0.1-0.6,0.1-1.3,0.5-1.8C-172.7,49.7-172.4,49.5-172,49.5L-172,49.5z"/>
			</g>
			<g transform="translate(5.064 5.524)" class="st2">
				<circle class="st8" cx="-172.9" cy="35.1" r="4.1"/>
			</g>
			<g transform="translate(4.804 5.412)" class="st2">
				<circle class="st9" cx="-173" cy="35" r="3.4"/>
				<path class="st4" d="M-173,39.1c-2.2,0-4-1.8-4-4s1.8-4,4-4s4,1.8,4,4C-168.9,37.3-170.7,39.1-173,39.1z M-173,32.3
					c-1.5,0-2.8,1.2-2.8,2.8c0,1.5,1.2,2.8,2.8,2.8s2.8-1.2,2.8-2.8C-170.2,33.5-171.4,32.3-173,32.3L-173,32.3z"/>
			</g>
			<g transform="translate(7.392 6.648)" class="st2">
				<path class="st10" d="M-175.5,31c-0.5,0-1,0.1-1.5,0.4c1.4-0.7,3-0.1,3.7,1.3c0.6,1.3,0.2,2.8-1,3.5c1.4-0.7,2-2.3,1.3-3.7
					C-173.5,31.6-174.5,31-175.5,31L-175.5,31z"/>
			</g>
			<g transform="translate(6.054 8.289)" class="st2">
				<path class="st11" d="M-173.8,34.6c-1.7,0-3-1.3-3-3l0,0c0-0.2,0-0.4,0.1-0.6c-0.6,1.4,0,3,1.4,3.7c1,0.5,2.2,0.3,3-0.5
					C-172.8,34.5-173.3,34.6-173.8,34.6z"/>
			</g>
			<g transform="translate(8.067 7.801)" class="st2">
				<path class="st4" d="M-176.3,34.4L-176.3,34.4c-0.4,0-0.7-0.3-0.7-0.7v-2c0-0.4,0.3-0.7,0.7-0.7l0,0c0.4,0,0.7,0.3,0.7,0.7v2
					C-175.6,34.1-175.9,34.4-176.3,34.4C-176.3,34.4-176.3,34.4-176.3,34.4z"/>
			</g>
			<g transform="translate(4.395 13.366)" class="st2">
				<path class="st8" d="M-175.9,33c0-0.2,0.1-0.5,0.2-0.7c0,0,0,0,0,0v0c0.1-0.1,0.2-0.3,0.4-0.3c0-0.2,0-0.3-0.1-0.5
					c0-0.1-0.2-0.2-0.2-0.1c-0.5,0.4-0.4,1.2-0.4,1.9c0,0.3,0.1,0.7-0.1,1c-0.1,0.1-0.1,0.1-0.2,0c-0.1-0.4-0.2-0.9-0.2-1.3
					c0-0.3,0-0.6,0-0.8c0-0.1,0-0.2,0-0.3c0,0,0-0.1,0-0.1c0,0,0,0,0,0c0-0.2,0-0.6-0.1-0.6s-0.2,0.2-0.2,0.4c0,0.6,0,1.1,0,1.7
					c0,0.7,0.1,1.3,0.3,2c0.2,0.6,0.6,0.2,0.8-0.3c0.1-0.4,0.2-0.8,0.1-1.2C-175.9,33.4-175.9,33.2-175.9,33z"/>
			</g>
			<g transform="translate(3.885 13.884)" class="st2">
				<path class="st12" d="M-173.9,32.4c-0.3,0.2-0.4,0.3-0.6-0.1c-0.1-0.3-0.2-0.5-0.3-0.7c0-0.1-0.1-0.2-0.2-0.1
					c-0.8,0.4-0.7,1.3-0.7,2.1c0,0.3,0.1,0.8-0.2,1c-0.1,0.1-0.2,0.1-0.3,0c-0.3-0.2-0.2-1.1-0.2-1.4c0-0.3,0-0.6,0-0.9
					c0-0.1,0-0.2,0-0.3c0,0,0-0.1,0-0.1c0,0,0,0,0,0c0-0.2,0-0.6-0.2-0.7s-0.3,0.2-0.4,0.4c-0.1,0.6-0.1,1.2,0,1.9
					c0,0.7,0.1,1.5,0.4,2.1c0.4,0.6,1,0.3,1.3-0.3c0.2-0.4,0.3-0.9,0.2-1.4c0-0.4-0.2-0.9,0.1-1.3c0.1,0.3,0.2,0.6,0.3,0.8
					c0.3,0.4,0.7,0.1,0.9-0.2C-173.6,33-173.5,32.2-173.9,32.4z"/>
				<path class="st4" d="M-176,35.8c-0.2,0-0.4-0.1-0.5-0.4c-0.3-0.6-0.5-1.3-0.4-2l0-0.1c0-0.6,0-1.2,0-1.9c0-0.2,0.1-0.3,0.2-0.4
					c0.1,0,0.1-0.1,0.2,0c0.3,0.1,0.2,0.7,0.2,0.8v0c0,0,0,0.1,0,0.1c0,0.1,0,0.2,0,0.3c0,0.3,0,0.6,0,0.9c0,0.1,0,0.1,0,0.2
					c0,0.4,0,1,0.2,1.2c0.1,0.1,0.1,0.1,0.2,0c0.2-0.2,0.2-0.5,0.2-0.8c0-0.1,0-0.1,0-0.2c0-0.7-0.1-1.7,0.7-2.1
					c0.1-0.1,0.2,0,0.3,0.1c0.1,0.2,0.2,0.3,0.2,0.5c0,0.1,0,0.2,0.1,0.2c0,0.1,0.1,0.2,0.1,0.2s0.1,0,0.3-0.1l0.1,0
					c0.1-0.1,0.2,0,0.2,0c0.1,0.3,0.1,0.5,0,0.8c-0.1,0.2-0.3,0.3-0.6,0.4c-0.2,0-0.3-0.1-0.4-0.2c-0.1-0.2-0.2-0.4-0.3-0.6
					c0-0.1,0-0.1-0.1-0.2c-0.1,0.3-0.1,0.6-0.1,0.9c0,0.1,0,0.2,0,0.3c0.1,0.5,0,1-0.2,1.4C-175.3,35.5-175.6,35.8-176,35.8
					L-176,35.8z M-176.6,31.1C-176.6,31.1-176.7,31.1-176.6,31.1c-0.2,0.1-0.2,0.2-0.2,0.4c-0.1,0.6-0.1,1.2,0,1.8l0,0.1
					c0,0.7,0.1,1.4,0.4,2c0.1,0.2,0.3,0.3,0.5,0.3c0.3-0.1,0.6-0.3,0.7-0.6c0.2-0.4,0.3-0.9,0.2-1.4c0-0.1,0-0.2,0-0.3
					c-0.1-0.3,0-0.7,0.1-1l0.1-0.1l0,0.1c0,0.1,0.1,0.2,0.1,0.3c0,0.2,0.1,0.4,0.2,0.6c0.1,0.1,0.2,0.2,0.3,0.2
					c0.2,0,0.4-0.2,0.5-0.3c0.1-0.2,0.1-0.5,0-0.7c0,0,0,0-0.1,0l0,0l-0.1,0c-0.1,0.1-0.3,0.1-0.4,0.1c-0.1,0-0.1-0.1-0.2-0.3
					c0-0.1-0.1-0.2-0.1-0.2c0-0.2-0.1-0.3-0.2-0.5c0-0.1-0.1-0.1-0.2-0.1c-0.7,0.4-0.7,1.3-0.6,2c0,0,0,0.1,0,0.1
					c0.1,0.3,0,0.7-0.2,0.9c-0.1,0.1-0.2,0.2-0.4,0c-0.2-0.2-0.2-0.8-0.3-1.2c0-0.1,0-0.2,0-0.2c0-0.3,0-0.6,0-0.9
					c0-0.1,0-0.2,0-0.3c0,0,0-0.1,0-0.1v0C-176.4,31.5-176.4,31.2-176.6,31.1C-176.6,31.1-176.6,31.1-176.6,31.1L-176.6,31.1z"/>
			</g>
			<g transform="translate(3.342 1.098)" class="st2">
				<g transform="translate(0)">
					<path class="st13" d="M-169.5,31c-1.4,0.1-2.7,0.6-3.8,1.4c-1.2,0.9-2.1,2.1-2.6,3.5c-0.5,1.1-0.8,2.3-1,3.5
						C-175.8,35.1-172.9,32-169.5,31z"/>
				</g>
			</g>
			<g transform="translate(11.901 1.076)" class="st2">
				<g transform="translate(0 0)">
					<path class="st8" d="M-168.8,40.3c-0.3-2.3-1.1-4.4-2.4-6.3c-1.4-1.8-3.5-2.9-5.8-3c3.7,0.6,6.6,5.8,6.6,12.1
						c0,2.4-0.4,4.8-1.4,7c0.1,0,0.1,0.1,0.1,0.1c0.3,0.4,0.5,1,0.6,1.5c0.1,0.3,0.1,0.6,0.3,0.7c0.1,0.1,0.3,0.1,0.5,0.1
						c0.5-0.1,0.9-0.8,1.1-1.9C-168.5,47.2-168.4,43.7-168.8,40.3z"/>
				</g>
			</g>
			<g transform="translate(14.854 0.73)" class="st2">
				<g transform="translate(0 0)">
					<g transform="translate(0.521 0.521)">
						<path class="st3" d="M-174.6,38.4c-0.7,0.1-1.4-0.1-2-0.5c-0.1-0.1-0.2-0.2-0.3-0.3c-0.1-0.2-0.1-0.4-0.1-0.5
							c0-1,1.3-2.7,2.4-3.8s2.7-2.3,3.7-2.3c0.3,0,0.6,0.1,0.7,0.3c0.3,0.4,0.3,1,0,1.4c0.1,0,0.1,0,0.1,0c0.4-0.1,0.9,0.1,1.1,0.5
							c0.2,0.5,0.1,1-0.3,1.4c0.7,0.1,1.1,0.4,1.2,0.8c0.1,0.3,0,0.5-0.1,0.7c-0.5,0.9-2.4,1.5-3.9,1.9
							C-172.9,38.3-173.7,38.4-174.6,38.4z"/>
					</g>
					<path class="st4" d="M-170.4,32c0.1,0,0.2,0,0.3,0.1c0.2,0.3,0,1-0.6,1.8c0.4-0.1,0.8-0.2,1.1-0.2c0.3,0,0.6,0.1,0.7,0.2
						c0.2,0.3-0.2,0.9-1,1.6h0.1c1,0,1.7,0.2,1.8,0.5c0.2,0.6-1.5,1.5-3.7,1.9c-0.8,0.2-1.7,0.3-2.5,0.3c-0.6,0.1-1.2-0.1-1.7-0.4
						c-0.1,0-0.1-0.1-0.1-0.1c0-0.1-0.1-0.2,0-0.3c0-0.7,0.9-2.1,2.3-3.4C-172.4,32.9-171,32-170.4,32 M-170.4,31
						c-1.5,0-3.5,1.9-4,2.4C-175,34-177,36-177,37.6c0,0.3,0,0.6,0.2,0.8c0.1,0.2,0.2,0.3,0.4,0.5c0.7,0.5,1.5,0.7,2.3,0.6
						c0.9,0,1.8-0.1,2.7-0.3c0.8-0.2,3.5-0.8,4.3-2.1c0.2-0.3,0.3-0.8,0.2-1.1c-0.1-0.5-0.5-0.8-1-1c0.3-0.7,0-1.6-0.7-1.9
						c-0.1-0.1-0.2-0.1-0.4-0.1c0.1-0.5,0-0.9-0.3-1.3C-169.5,31.2-170,31-170.4,31L-170.4,31z"/>
				</g>
				<g transform="translate(2.065 1.061)">
					<path class="st5" d="M-175.1,32.9c0.9-0.7,2-1.2,3.1-1.5c0-0.1,0-0.2-0.1-0.3c-0.4-0.5-2,0.4-3.6,2c-0.4,0.4-0.9,0.9-1.2,1.4
						C-176.4,33.9-175.8,33.4-175.1,32.9z"/>
				</g>
				<g transform="translate(1.045 2.932)">
					<path class="st6" d="M-169,33.2c-0.1-0.4-0.8-0.5-1.9-0.5c0.8-0.6,1.2-1.2,1-1.6c0,0-0.1-0.1-0.1-0.1l-7,3.8c0,0.1,0,0.1,0,0.1
						c0,0.1,0.1,0.1,0.1,0.1c0.4,0.5,2.2,0.5,4.2,0.1C-170.4,34.7-168.8,33.8-169,33.2z"/>
				</g>
			</g>
			<g transform="translate(14.238 10.327)" class="st2">
				<path class="st8" d="M-176,31.5c0,0.3-0.2,0.5-0.5,0.5s-0.5-0.2-0.5-0.5c0-0.3,0.2-0.5,0.5-0.5C-176.2,31-176,31.2-176,31.5
					C-176,31.5-176,31.5-176,31.5z"/>
			</g>
			<g transform="translate(9.958 18.12)" class="st2">
				<path class="st8" d="M-176,31.5c0,0.3-0.2,0.5-0.5,0.5s-0.5-0.2-0.5-0.5c0-0.3,0.2-0.5,0.5-0.5C-176.2,31-176,31.2-176,31.5
					C-176,31.5-176,31.5-176,31.5z"/>
			</g>
			<g transform="translate(8.809 18.977)" class="st2">
				<path class="st13" d="M-176.3,31.3c0,0.2-0.1,0.3-0.3,0.3c-0.2,0-0.3-0.1-0.3-0.3c0-0.2,0.1-0.3,0.3-0.3
					C-176.5,31-176.3,31.1-176.3,31.3L-176.3,31.3z"/>
			</g>
			<g transform="translate(15.67 10.646)" class="st2">
				<circle class="st8" cx="-176.2" cy="31.8" r="0.8"/>
			</g>
			<g transform="translate(15.767 9.411)" class="st2">
				<path class="st8" d="M-176.2,31.4c0,0.2-0.2,0.4-0.4,0.4c-0.2,0-0.4-0.2-0.4-0.4c0-0.2,0.2-0.4,0.4-0.4
					C-176.4,31-176.2,31.2-176.2,31.4C-176.2,31.4-176.2,31.4-176.2,31.4z"/>
			</g>
			<g transform="translate(14.17 2.268)" class="st2">
				<path class="st13" d="M-176.2,31.4c0,0.2-0.2,0.4-0.4,0.4s-0.4-0.2-0.4-0.4c0-0.2,0.2-0.4,0.4-0.4c0,0,0,0,0,0
					C-176.4,31-176.2,31.2-176.2,31.4z"/>
			</g>
			<g transform="translate(13.585 13.003)" class="st2">
				<path class="st8" d="M-172.6,34.2c0-0.1,0-0.5-0.2-0.5s-0.2,0.3-0.2,0.5c0,0.3,0,0.6-0.2,0.8c-0.2,0.3-0.6,0-0.7-0.3
					c-0.4-0.6-0.3-1.4-0.8-1.9c-0.2-0.2-0.3,0.1-0.4,0.3c0,0.2-0.1,0.6-0.3,0.6c-0.2,0-0.2-0.2-0.3-0.3c-0.1-0.4-0.1-0.8-0.2-1.2
					c-0.1-0.5-0.3-1.7-1-1.2c-0.3,0.2-0.1,1.1,0.1,0.9c0.4-0.3,0.4,0.3,0.4,0.6c0.1,0.5,0.1,0.9,0.2,1.4c0.1,0.4,0.3,0.9,0.8,0.8
					c0.3-0.1,0.5-0.4,0.6-0.7c0.4,0.8,0.3,1.9,1.2,2.1C-172.6,36.4-172.5,34.8-172.6,34.2z"/>
			</g>
			<g transform="translate(13.506 13.967)" class="st2">
				<path class="st12" d="M-172.5,34.3c0-0.1,0-0.5-0.2-0.5s-0.2,0.3-0.2,0.5c0,0.3,0,0.6-0.2,0.8c-0.2,0.3-0.6,0-0.7-0.3
					c-0.4-0.6-0.3-1.4-0.8-1.9c-0.2-0.2-0.3,0.1-0.4,0.3c0,0.2-0.1,0.6-0.3,0.6c-0.2,0-0.2-0.2-0.3-0.3c-0.1-0.4-0.1-0.8-0.2-1.2
					c-0.1-0.5-0.3-1.7-1-1.2c-0.3,0.2-0.1,1.1,0.1,0.9c0.4-0.3,0.4,0.3,0.4,0.6c0.1,0.5,0.1,0.9,0.2,1.4c0.1,0.4,0.3,0.9,0.8,0.8
					c0.3-0.1,0.5-0.4,0.6-0.7c0.4,0.8,0.3,1.9,1.2,2.1C-172.5,36.5-172.5,34.9-172.5,34.3z"/>
				<path class="st4" d="M-173.3,36.3c-0.1,0-0.1,0-0.2,0c-0.7-0.2-0.9-0.8-1-1.4c0-0.2-0.1-0.4-0.2-0.6c-0.1,0.4-0.3,0.6-0.6,0.6
					c-0.5,0.1-0.8-0.5-0.9-0.9c-0.1-0.3-0.1-0.5-0.1-0.8c0-0.2,0-0.4-0.1-0.6c0,0,0-0.1,0-0.1c0-0.2-0.1-0.4-0.2-0.5
					c0,0-0.1,0-0.2,0.1c0,0-0.1,0-0.2,0c-0.1-0.1-0.2-0.3-0.2-0.4c0-0.2,0-0.4,0.2-0.6c0.1-0.1,0.3-0.2,0.5-0.1
					c0.4,0.2,0.6,1,0.6,1.3c0,0.1,0,0.3,0.1,0.5c0,0.2,0.1,0.5,0.1,0.7l0,0c0,0.1,0.1,0.2,0.2,0.2c0.2,0,0.2-0.3,0.2-0.5
					c0,0,0-0.1,0-0.1c0-0.1,0.1-0.4,0.2-0.4c0.1,0,0.2,0,0.2,0.1c0.3,0.3,0.4,0.7,0.5,1.1c0.1,0.3,0.2,0.6,0.3,0.8
					c0.1,0.1,0.3,0.3,0.4,0.4c0.1,0,0.1,0,0.2-0.1c0.1-0.2,0.1-0.5,0.1-0.7c0,0,0-0.1,0-0.1c0-0.3,0.1-0.5,0.3-0.5s0.3,0.2,0.3,0.5
					l0,0c0,0.4,0,1.5-0.5,1.9C-173,36.3-173.1,36.3-173.3,36.3z M-174.7,34l0.1,0.1c0.1,0.2,0.2,0.5,0.2,0.8c0.2,0.6,0.3,1.2,1,1.4
					c0.2,0,0.3,0,0.5-0.1c0.4-0.5,0.5-1.2,0.4-1.8l0,0c0-0.1,0-0.4-0.2-0.4c-0.1,0-0.2,0.1-0.2,0.4c0,0,0,0.1,0,0.1
					c0,0.3,0,0.5-0.2,0.7c-0.1,0.1-0.2,0.1-0.3,0.1c-0.2-0.1-0.4-0.2-0.5-0.4c-0.1-0.3-0.2-0.5-0.3-0.8c-0.1-0.4-0.3-0.8-0.5-1.1
					c0,0-0.1-0.1-0.1-0.1c-0.1,0-0.2,0.2-0.2,0.3c0,0,0,0.1,0,0.1c0,0.2-0.1,0.5-0.3,0.6s-0.3-0.2-0.3-0.3l0,0
					c-0.1-0.2-0.1-0.5-0.1-0.7c0-0.2,0-0.3-0.1-0.5c-0.1-0.7-0.3-1.1-0.5-1.2c-0.1,0-0.3,0-0.4,0.1c-0.1,0.1-0.2,0.3-0.1,0.5
					c0,0.2,0.1,0.3,0.1,0.4c0,0,0,0,0.1,0c0.1-0.1,0.2-0.1,0.3-0.1c0.2,0.1,0.2,0.3,0.2,0.6c0,0,0,0.1,0,0.1c0,0.2,0.1,0.4,0.1,0.6
					c0,0.3,0.1,0.5,0.1,0.8c0.1,0.3,0.3,0.9,0.7,0.8c0.2,0,0.4-0.3,0.5-0.7L-174.7,34z"/>
			</g>
			<g transform="translate(18.539 9.763)" class="st2">
				<path class="st8" d="M-175.9,32.8c0-0.5-0.3-0.3-0.3,0.1c0,0.3,0,0.7,0,1c-0.1,0.3-0.3-0.1-0.3-0.3c-0.1-0.7,0-1.5-0.1-2.3
					c-0.1-0.6-0.4-0.2-0.3,0.3c0.1,0.5,0,1.1,0.1,1.7c0,0.6,0.1,1.1,0.3,1.6c0.3,0.4,0.6,0.1,0.7-0.4
					C-175.8,33.9-175.8,33.4-175.9,32.8z"/>
			</g>
			<g transform="translate(18.307 10.696)" class="st2">
				<path class="st12" d="M-175.4,32.8c-0.1-0.5-0.4-0.3-0.4,0.1c0,0.2,0.1,0.8,0,1c-0.2,0.3-0.4-0.1-0.5-0.3
					c-0.2-0.7,0-1.5-0.2-2.3c-0.1-0.6-0.6-0.2-0.5,0.3c0.1,0.5,0.1,1.1,0.1,1.7c0,0.6,0.1,1.1,0.5,1.6c0.4,0.4,0.8,0.1,0.9-0.4
					C-175.3,33.9-175.3,33.4-175.4,32.8z"/>
			</g>
			<g transform="translate(3.226 17.653)" class="st2">
				<g transform="translate(0 0)">
					<path class="st13" d="M-174.7,35c-0.9,0.1-1.9-1.7-2.3-4c0.1,0.9,0.2,1.8,0.4,2.7c0.1,0.7,0.4,1.4,0.8,1.9
						c0.2,0.2,0.4,0.3,0.7,0.3C-174.9,35.8-174.7,35.5-174.7,35L-174.7,35z"/>
				</g>
			</g>
		</g>
	</g>
</g>
<g id="Layer_2">
	<path class="st14" d="M-148.3,51.2c0,4-2.1,7.6-5.4,9.6c-1.9-0.8-3.9-1.5-5.8-2.3c-1.9,0.8-3.9,1.6-5.8,2.3c-1-0.7-3.7-2.6-4.9-6.2
		c-0.1-0.4-0.5-1.8-0.5-3.3c0-6.2,5-11.2,11.2-11.2C-153.3,40-148.3,45-148.3,51.2"/>
	<path class="st15" d="M-154,41.3c-0.7-1.2-0.1-2.1-0.1-2.1c-0.6,0.1-1.1,0.6-1.3,1.1c-0.1,0.3-0.1,0.6-0.5,0.7
		c-0.3,0.1-0.8-0.1-0.8-0.6c-0.1-1,0.7-1.5,0.9-2.9c0.2-1.4-0.8-2.1-0.8-2.1c0.1,1.9-1.5,2.9-2.1,1.2c-0.8-2.1,1-3.6,1-3.6
		c-2-0.2-3.2,1.1-3.6,2c-0.6,1.2-0.1,2.3-0.1,2.6c0.1,0.3,0.3,1.1-0.2,1.2c-0.3,0.1-0.6,0-0.9-0.9c-0.4-1-0.2-2.1-0.2-2.1
		c-0.9,0.7-1.1,1.6-1.1,2.1c0,0.7,0.4,1.5,0.6,2c0.2,0.4,0.3,1-0.1,1.2c-0.6,0.2-0.8-0.8-1.2-1.4s-1.2-0.8-1.2-0.8s0.5,0.5,0.3,1.5
		c-0.2,0.9-0.6,1.3-0.8,2.7c-0.1,0.6,0.2,1.5,0.5,1.9c0.5,0.7,1,1,1,1l0.4-0.3c0,0,0-1.9,0.4-2.8c0.5-0.9,2.8-1.6,4.3-1.7
		c1.5-0.1,2.7,0.8,3.8,1.4s0.9,3.1,0.9,3.1l0.4,0.5c0,0,0.6-0.7,1-1.2c0.1-0.1,0.3-0.7,0.4-1.4C-153.1,42.6-153.5,42.1-154,41.3"/>
	<path class="st15" d="M-154.9,38.6c0.2-0.4,0.2-1-0.4-1.5c0,0,0.1,0.8-0.1,1.3C-155.6,38.8-155.1,39-154.9,38.6"/>
	<path class="st16" d="M-166,47.3c0,0-2.4,7.6,3.4,10.1s8.4-1.1,9.3-2.7c0.9-1.6,1.2-4.3,0.8-6.1c-0.4-1.9-0.3-1.9-0.3-2.5
		c0-0.6-0.2-1.3-2.7-2.1c-2.5-0.8-4.9-1.4-7-0.5c-2.1,0.8-4.4,1.9-4.1,3.1C-166.3,47.7-166,47.3-166,47.3"/>
	<path class="st17" d="M-157.9,44.1c0.5,0.3,2.7,1.5,3.6,4.3c1.2,3.7-1.1,6.8-1.2,7c-1.6,2.1-3.9,2.6-4.5,2.8c0,0,4.5,0.5,6.3-3.1
		c1.8-3.5,1.8-4.9,1.2-6.7c-0.7-1.8,0.2-1.3,0.1-1.8c0-0.2-0.6-1.5-2.3-2.2C-156,43.8-157.2,43.9-157.9,44.1"/>
	<path class="st18" d="M-161.1,44.1c-0.6,0.5-2.5,2.2-2.9,5.1c-0.4,3.2,1.4,5.5,1.8,6.1c1.1,1.4,3.1,2.9,3.1,2.9s-4.5,0.5-6.3-3.1
		c-1.8-3.5-1.8-4.9-1.2-6.7c0.7-1.8-0.2-1.3-0.1-1.8c0-0.2,0.6-1.5,2.3-2.2C-163,43.8-161.8,43.9-161.1,44.1"/>
	<path class="st19" d="M-167.4,49.7c-0.5-0.6-0.9-1.3-0.9-2c0.2-2.2,4.4-3.8,7.7-4.1c5.2-0.4,10.4,2.9,10.1,4.3
		c-0.1,0.4-0.7,0.7-1.4,0.9c-0.5-0.6-1.4-1.6-2.8-2.4c-2-1.1-3.8-1-5-1c-1.4,0-4.2,0.1-6.3,2.1C-166.7,48.4-167.2,49.2-167.4,49.7"
		/>
	<path class="st20" d="M-159.8,43.7c4.9,0,9.5,3,9.3,4.3c-0.1,0.4-0.7,0.7-1.4,0.9c-0.5-0.6-1.4-1.6-2.8-2.4c-1.6-0.9-3.2-1-4.3-1
		c-0.3,0-0.5,0-0.7,0c-1.4,0-4.2,0.1-6.3,2.1c-0.8,0.8-1.2,1.6-1.5,2.1c-0.5-0.6-0.9-1.3-0.9-2c0.2-2.2,4.4-3.8,7.7-4.1
		C-160.3,43.7-160.1,43.7-159.8,43.7 M-159.8,43.5c-0.3,0-0.6,0-0.9,0c-1.7,0.1-3.6,0.6-5.1,1.3c-1.2,0.6-2.6,1.5-2.7,2.9
		c0,0.7,0.3,1.4,0.9,2.1l0.1,0.1l0.1-0.2c0.4-0.8,0.9-1.5,1.5-2.1c2.1-2,4.8-2.1,6.2-2.1c0.2,0,0.5,0,0.7,0c1.1,0,2.6,0.1,4.3,1
		c1.1,0.6,2,1.4,2.7,2.4l0.1,0.1l0.1,0c0.9-0.2,1.4-0.6,1.5-1c0.1-0.3-0.1-0.7-0.4-1.1c-0.6-0.8-1.9-1.6-3.5-2.3
		C-155.5,44.2-157.5,43.5-159.8,43.5"/>
	<path class="st21" d="M-156.1,41.2c0-1.9-1.5-3.4-3.4-3.4c-1.9,0-3.4,1.5-3.4,3.4c0,0,0,0,0,0L-156.1,41.2
		C-156.1,41.2-156.1,41.2-156.1,41.2"/>
	<path class="st21" d="M-156.1,41.3h-7v-0.1c0-1.9,1.6-3.5,3.5-3.5s3.5,1.6,3.5,3.5L-156.1,41.3L-156.1,41.3z M-162.9,41.1h6.7
		c0-1.8-1.5-3.3-3.3-3.3C-161.4,37.8-162.8,39.3-162.9,41.1"/>
	<path class="st19" d="M-149.7,45.1c-0.1-0.1-0.2-0.3-0.2-0.4c-0.1-0.1-0.2-0.2-0.3-0.4c-0.4-0.5-1-0.8-1.5-1.2
		c-1.1-0.7-2.3-1.2-3.7-1.6c-1.4-0.4-2.2-0.5-2.2-0.5c0,0-0.1-0.1-0.1-0.2c-0.1-0.1-0.1-0.3-0.2-0.4c-0.2-0.6-0.5-1.1-1.1-1.3h-0.2
		c-0.2,0-0.3,0.1-0.4,0.2c-0.1-0.1-0.2-0.2-0.4-0.2v0h-0.2c-0.7,0.2-1,1-1.3,1.8c0,0.1,0,0.1-0.1,0.1c-0.5,0.1-1.9,0.3-3.9,1.1
		c-0.6,0.2-1.1,0.5-1.6,0.8s-1,0.6-1.5,1c-0.3,0.3-0.6,0.6-0.8,1c-0.1,0.1-0.1,0.3-0.1,0.5c0.1,0.3,0.2,0.6,0.3,1
		c0.1,0.3,0,0.7,0.1,1.2c0,0.4,0.2,0.7,0.3,0.9c0,0.1,0.1,0.1,0.1,0.2c0,0.1,0.1,0.1,0.1,0.2c0.1,0.2,0.3,0.4,0.5,0.5
		c0.7,0.5,1.1,0.8,1.2,0.7c0,0,0-0.1,0-0.3c0.1-0.1,0.2-0.4,0.1-0.6c-0.2-0.5-1.3-0.3-1.6-0.9c-0.1-0.3,0-0.7,0.1-0.9
		c0.1-0.2,0.2-0.5,0.4-0.6c0.3-0.4,0.7-0.7,1.7-1.4c1.1-0.6,1.9-0.9,3-1.2c0.8-0.2,1.7-0.4,2.6-0.5c0.9-0.1,1-0.1,2,0
		c1,0.1,1.8,0.3,2.6,0.5c0.5,0.2,1.1,0.3,1.6,0.5c0.9,0.3,1.9,0.9,2.6,1.5c0.2,0.2,0.4,0.3,0.5,0.5c0.2,0.2,0.3,0.4,0.4,0.6
		c0,0.1,0.2,0.5,0.1,0.9c-0.2,0.5-0.8,0.8-1.5,0.8c0,0.1,0.1,0.3,0.1,0.5c0,0.1,0,0.2,0,0.3c0.9-0.6,1.5-1,1.6-1.2
		c0.1-0.1,0.1-0.2,0.1-0.2c0-0.1,0.1-0.1,0.1-0.2c0.1-0.2,0.1-0.3,0.2-0.5c0.1-0.4,0.1-0.8,0.1-1.2c0-0.2,0.1-0.4,0.1-0.6
		C-149.7,45.8-149.5,45.4-149.7,45.1"/>
	<path class="st22" d="M-152.4,50.6l0-0.7c0-0.1,0-0.2,0-0.3c0-0.1,0-0.3-0.1-0.4l-0.1-0.5l0.5,0c0.6,0,1.1-0.2,1.2-0.5
		c0.1-0.2,0-0.5-0.1-0.6c-0.1-0.2-0.2-0.4-0.3-0.5l0,0c-0.2-0.2-0.3-0.3-0.5-0.5c-0.7-0.6-1.8-1.2-2.5-1.5c-0.5-0.2-1.1-0.4-1.5-0.5
		c-0.9-0.2-1.7-0.4-2.6-0.5c-0.9-0.1-1-0.1-1.9,0c-0.9,0.1-1.7,0.2-2.6,0.5c-1,0.3-1.8,0.5-2.9,1.2c-1,0.6-1.3,0.9-1.6,1.3l0,0
		c-0.1,0.1-0.2,0.3-0.3,0.5c-0.1,0.2-0.1,0.4-0.1,0.5c0.1,0.1,0.3,0.2,0.6,0.2c0.4,0.1,0.8,0.2,1,0.6c0.1,0.2,0.1,0.5,0,0.7
		c0.1,0.2,0,0.4-0.1,0.6c-0.3,0.3-0.8,0.1-1.7-0.6l0,0c-0.2-0.2-0.4-0.4-0.5-0.6c0,0,0-0.1-0.1-0.1c0,0,0-0.1,0-0.1c0,0,0,0,0,0
		c0,0-0.1-0.1-0.1-0.2c-0.2-0.4-0.3-0.7-0.4-1.1c0-0.2,0-0.4,0-0.5c0-0.2,0-0.4,0-0.6c0-0.1-0.1-0.3-0.1-0.4
		c-0.1-0.2-0.1-0.3-0.2-0.5c0-0.3,0-0.5,0.1-0.8c0.2-0.4,0.5-0.8,0.9-1.1c0.4-0.4,0.9-0.7,1.5-1.1c0.6-0.4,1.2-0.6,1.7-0.9
		c1.8-0.7,3.1-1,3.8-1.1l0,0c0,0,0-0.1,0.1-0.2c0.3-0.7,0.6-1.5,1.5-1.7l0,0h0.6v0.1c0.1,0,0.2-0.1,0.3-0.1l0,0h0.2l0,0
		c0.8,0.2,1.1,1,1.4,1.5l0,0.1c0,0.1,0.1,0.2,0.1,0.3c0.4,0,1.1,0.2,2.1,0.5c1.4,0.4,2.6,1,3.8,1.7c0.5,0.3,1.1,0.7,1.6,1.2
		c0.1,0.1,0.2,0.3,0.3,0.4l0,0c0.1,0.1,0.2,0.3,0.3,0.5l0,0c0.2,0.4,0,0.8-0.1,1.1c0,0.1,0,0.1-0.1,0.2c0,0.2-0.1,0.3-0.1,0.5
		c0,0.1,0,0.2,0,0.4c0,0.3,0,0.6-0.1,0.9c-0.1,0.2-0.1,0.4-0.2,0.6l0,0c0,0.1-0.1,0.2-0.1,0.2c0,0-0.1,0.1-0.2,0.2
		c-0.2,0.2-1,0.8-1.7,1.2L-152.4,50.6z M-167.5,49.2c0.2,0.1,0.3,0.2,0.4,0.3c0-0.1,0-0.1,0-0.1C-167.1,49.3-167.3,49.3-167.5,49.2
		 M-159.9,39.5c-0.4,0.1-0.6,0.7-0.9,1.2c0,0.1-0.1,0.2-0.1,0.3c-0.1,0.2-0.2,0.3-0.4,0.3h0c0,0-0.1,0-0.2,0c-0.6,0.1-1.9,0.3-3.6,1
		c-0.5,0.2-1,0.5-1.6,0.8c-0.6,0.3-1,0.6-1.4,1c-0.3,0.3-0.6,0.6-0.8,0.9c0,0.1-0.1,0.2,0,0.2c0,0.1,0.1,0.3,0.1,0.4
		c0.1,0.2,0.1,0.3,0.2,0.5c0,0.2,0.1,0.5,0.1,0.7c0,0.1,0,0.2,0,0.3c0.1-0.3,0.3-0.5,0.4-0.7l0,0c0.4-0.4,0.7-0.8,1.8-1.4
		c1.1-0.7,2.1-1,3.1-1.2c0.9-0.3,1.8-0.4,2.7-0.5c1-0.1,1.1-0.1,2,0c0.9,0.1,1.8,0.2,2.7,0.5c0.5,0.1,1.1,0.3,1.6,0.5
		c0.8,0.3,1.9,0.9,2.7,1.6c0.2,0.2,0.4,0.4,0.5,0.5l0,0c0.2,0.2,0.3,0.4,0.4,0.7c0-0.1,0-0.2,0-0.3c0-0.1,0-0.3,0-0.4
		c0-0.2,0.1-0.4,0.1-0.6c0-0.1,0.1-0.2,0.1-0.2c0.1-0.2,0.2-0.4,0.1-0.6c0-0.1-0.1-0.2-0.2-0.3l0,0c-0.1-0.1-0.2-0.2-0.3-0.3
		c-0.4-0.4-0.9-0.8-1.4-1.1c-1.1-0.7-2.3-1.2-3.6-1.6c-1.3-0.4-2.1-0.5-2.2-0.5h0l0,0c-0.2-0.1-0.3-0.3-0.3-0.4c0,0,0,0,0,0
		c0-0.1-0.1-0.2-0.1-0.3l0-0.1c-0.2-0.5-0.4-0.9-0.8-1h0c0,0-0.1,0-0.2,0.1l-0.2,0.2l-0.3-0.2c0,0-0.1,0-0.1-0.1
		C-159.8,39.6-159.9,39.5-159.9,39.5L-159.9,39.5L-159.9,39.5L-159.9,39.5z"/>
	<path class="st23" d="M-163,41.4c0.6,0.6,1.2,1.3,1.7,2c0.5-1,1.2-2.1,1.6-2.4c0,0,0,0,0-0.1C-160.9,41-162,41.2-163,41.4"/>
	<path class="st10" d="M-161.3,43.5L-161.3,43.5c-0.6-0.9-1.2-1.5-1.7-2l0,0l0.1,0c1.1-0.3,2.2-0.4,3.4-0.5h0l0,0c0,0,0,0.1,0,0.1
		l0,0C-160,41.4-160.7,42.4-161.3,43.5L-161.3,43.5z M-162.9,41.5c0.5,0.5,1.1,1.1,1.6,1.9c0.5-1.1,1.2-2.1,1.6-2.4l0,0
		C-160.8,41-161.8,41.2-162.9,41.5"/>
	<path class="st23" d="M-158.4,42.1c0.3,0.4,0.5,0.9,0.8,1.3c0.5-0.7,1-1.4,1.7-1.9c0,0,0,0,0-0.1c-1-0.3-2.1-0.4-3.4-0.5
		C-159,41.2-158.7,41.6-158.4,42.1"/>
	<path class="st10" d="M-157.7,43.4L-157.7,43.4c-0.3-0.5-0.5-1-0.8-1.4c-0.3-0.4-0.6-0.8-0.9-1.2l-0.1-0.1h0.1
		c1.1,0,2.2,0.2,3.4,0.5h0l0,0c0,0,0,0.1,0,0.1C-156.6,42-157.1,42.7-157.7,43.4L-157.7,43.4z M-159.2,40.9c0.3,0.3,0.6,0.7,0.9,1.1
		c0.2,0.4,0.5,0.8,0.7,1.3c0.5-0.7,1-1.4,1.6-1.9l0,0C-157.2,41.1-158.2,41-159.2,40.9"/>
	<path class="st15" d="M-160,41.9c-0.4,0.6-0.8,1.2-1.1,1.8c1.1-0.1,2.3-0.1,3.3,0c-0.3-0.7-0.7-1.3-1.1-1.8
		c-0.2-0.2-0.4-0.5-0.6-0.7c0,0,0,0,0,0C-159.7,41.3-159.9,41.6-160,41.9"/>
	<path class="st10" d="M-157.7,43.7L-157.7,43.7c-1.1-0.1-2.3-0.1-3.4,0l-0.1,0l0-0.1c0.3-0.7,0.7-1.3,1.1-1.8l0-0.1
		c0.2-0.2,0.3-0.5,0.5-0.6l0,0l0,0l0,0l0,0c0.2,0.2,0.4,0.4,0.6,0.7l0,0C-158.5,42.3-158.1,42.9-157.7,43.7L-157.7,43.7z M-160,41.9
		c-0.4,0.5-0.8,1.1-1.1,1.8c1-0.1,2.2-0.1,3.2,0c-0.3-0.7-0.7-1.3-1.1-1.8l0,0c-0.2-0.2-0.3-0.5-0.5-0.6
		C-159.7,41.4-159.8,41.6-160,41.9L-160,41.9z"/>
	<path class="st15" d="M-163.1,41.7c-0.2,0.3-0.7,1.3-0.9,2.7c0.8-0.3,1.7-0.5,2.7-0.6C-161.8,43-162.4,42.3-163.1,41.7"/>
	<path class="st10" d="M-164.1,44.4L-164.1,44.4c0.2-1.4,0.7-2.4,1-2.7l0,0l0,0c0.7,0.6,1.3,1.4,1.8,2l0,0l-0.1,0
		C-162.3,43.9-163.2,44.1-164.1,44.4L-164.1,44.4z M-163.1,41.7c-0.2,0.3-0.7,1.3-0.9,2.6c0.8-0.3,1.7-0.5,2.6-0.6
		C-161.9,43-162.4,42.3-163.1,41.7"/>
	<path class="st15" d="M-156.8,42.7c-0.3,0.3-0.5,0.7-0.8,1c0,0,0,0,0,0.1c1,0.1,1.9,0.3,2.7,0.6c-0.2-1-0.5-1.9-0.9-2.7
		C-156.2,42-156.5,42.3-156.8,42.7"/>
	<path class="st10" d="M-154.8,44.4L-154.8,44.4c-0.9-0.3-1.8-0.5-2.8-0.6h0l0,0c0,0,0-0.1,0-0.1l0,0c0.3-0.3,0.5-0.7,0.8-1
		c0.3-0.4,0.7-0.7,0.9-1l0,0l0,0C-155.4,42.3-155.1,43.2-154.8,44.4L-154.8,44.4z M-157.6,43.7c0.9,0.1,1.8,0.3,2.6,0.6
		c-0.2-1.1-0.5-1.9-0.9-2.6c-0.3,0.2-0.6,0.6-0.9,1C-157,43-157.3,43.3-157.6,43.7C-157.5,43.7-157.6,43.7-157.6,43.7"/>
	<path class="st23" d="M-166.1,42.6c0.6,0.3,1.4,0.9,1.8,1.4c0,0,0,0,0,0c0.2-1,0.5-1.9,0.9-2.5C-164.3,41.8-165.2,42.2-166.1,42.6"
		/>
	<path class="st10" d="M-164.2,44.1C-164.2,44.1-164.3,44.1-164.2,44.1L-164.2,44.1c-0.4-0.4-1-0.9-1.9-1.5l0,0l0.1,0
		c0.9-0.4,1.8-0.8,2.8-1.1l0.1,0l0,0.1C-163.6,42.1-163.9,43-164.2,44.1L-164.2,44.1L-164.2,44.1C-164.2,44.1-164.2,44.1-164.2,44.1
		 M-166,42.6c0.9,0.5,1.5,1,1.8,1.4l0,0c0.2-1,0.5-1.8,0.9-2.4C-164.3,41.8-165.2,42.2-166,42.6"/>
	<path class="st23" d="M-154.7,44.1c0.5-0.6,1.2-1,1.9-1.5c-0.9-0.4-1.8-0.8-2.8-1.1C-155.2,42.2-154.9,43.1-154.7,44.1"/>
	<path class="st10" d="M-154.8,44.1L-154.8,44.1c-0.2-0.8-0.4-1.8-0.9-2.6l0-0.1l0.1,0c0.9,0.2,1.8,0.6,2.8,1.1l0.1,0l0,0
		C-153.5,43.1-154.2,43.5-154.8,44.1L-154.8,44.1z M-155.6,41.6c0.5,0.7,0.7,1.7,0.9,2.4c0.5-0.5,1.1-1,1.8-1.4
		C-153.8,42.2-154.7,41.8-155.6,41.6"/>
	<path class="st15" d="M-166.2,42.9c-0.2,0.7-0.2,1.7-0.2,2.5c0.7-0.4,1.4-0.8,2.2-1C-164.8,43.8-165.5,43.3-166.2,42.9
		C-166.2,42.9-166.2,42.9-166.2,42.9"/>
	<path class="st10" d="M-166.5,45.5L-166.5,45.5c-0.1-1,0-1.9,0.2-2.6l0,0c0,0,0,0,0,0l0,0l0,0c0.9,0.5,1.5,1,2,1.5l0,0l0,0
		C-164.9,44.7-165.6,45-166.5,45.5L-166.5,45.5z M-166.2,42.9c-0.2,0.7-0.2,1.6-0.2,2.5c0.7-0.4,1.4-0.8,2.1-1
		C-164.7,43.9-165.4,43.4-166.2,42.9"/>
	<path class="st15" d="M-152.6,43.1c0-0.1,0-0.3-0.1-0.3c0,0,0,0,0,0c-0.7,0.4-1.4,0.9-1.9,1.4c0,0,0,0,0,0c0.8,0.3,1.5,0.6,2.1,1
		c0,0,0,0,0.1,0C-152.4,44.7-152.5,43.8-152.6,43.1"/>
	<path class="st10" d="M-152.5,45.5C-152.5,45.5-152.6,45.4-152.5,45.5L-152.5,45.5c-0.8-0.4-1.5-0.8-2.2-1h0l0,0c0,0,0-0.1,0-0.1
		l0,0c0.6-0.6,1.3-1.1,1.9-1.5c0,0,0,0,0,0c0,0,0.1,0.1,0.1,0.3c0,0,0,0,0,0C-152.5,43.9-152.4,44.7-152.5,45.5L-152.5,45.5
		L-152.5,45.5C-152.5,45.5-152.5,45.5-152.5,45.5 M-154.7,44.4c0.7,0.3,1.4,0.6,2.1,1c0,0,0,0,0,0c0.1-0.8,0-1.7-0.1-2.2l0,0
		c0,0,0,0,0,0c0,0,0-0.2,0-0.2C-153.4,43.3-154.1,43.8-154.7,44.4C-154.6,44.4-154.7,44.4-154.7,44.4"/>
	<path class="st23" d="M-168.2,44C-168.3,44-168.3,44-168.2,44c0.3,0.2,0.6,0.3,0.8,0.5c0.2,0.2,0.5,0.4,0.7,0.6c0,0,0,0,0,0
		c0-0.8,0-1.7,0.2-2.3C-167.1,43.1-167.7,43.5-168.2,44"/>
	<path class="st10" d="M-166.7,45.2C-166.7,45.2-166.7,45.2-166.7,45.2c-0.2-0.2-0.5-0.4-0.8-0.6c-0.3-0.2-0.6-0.4-0.9-0.5l0,0v0
		c0,0,0-0.1,0-0.1h0c0.5-0.4,1.1-0.8,1.8-1.2l0.1,0l0,0.1C-166.6,43.5-166.7,44.3-166.7,45.2L-166.7,45.2L-166.7,45.2
		C-166.6,45.2-166.6,45.2-166.7,45.2 M-168.2,44c0.3,0.1,0.6,0.3,0.8,0.5c0.2,0.2,0.5,0.4,0.7,0.6c0-0.8,0-1.5,0.2-2.2
		C-167.2,43.2-167.8,43.6-168.2,44L-168.2,44L-168.2,44"/>
	<path class="st15" d="M-168.3,44.3C-168.3,44.3-168.3,44.3-168.3,44.3c-0.1,0.9,0,1.8,0.2,2.6c0.4-0.5,1-1,1.6-1.4
		C-167,45-167.6,44.6-168.3,44.3"/>
	<path class="st10" d="M-168.2,46.9L-168.2,46.9c-0.2-0.9-0.3-1.8-0.2-2.6c0,0,0,0,0,0h0h0c0.7,0.3,1.3,0.7,1.8,1.2l0,0l0,0
		C-167,45.8-167.6,46.3-168.2,46.9L-168.2,46.9z M-168.3,44.3c-0.1,0.8,0,1.6,0.2,2.4c0.5-0.5,1-1,1.5-1.3
		C-167,45-167.6,44.6-168.3,44.3"/>
	<path class="st24" d="M-156.8,40.9l-5.4-0.2c0-0.1,0-0.2,0.1-0.3c0.2-0.7,0.9-2.2,2.7-2.2c0.8,0,1.3,0.3,1.7,0.7
		C-157,39.7-156.8,40.9-156.8,40.9"/>
	<path class="st24" d="M-159.5,38.2c0.8,0,1.3,0.3,1.7,0.7c0.8,0.8,0.9,2,0.9,2l-5.4-0.2c0-0.1,0-0.2,0.1-0.3
		C-161.9,39.6-161.2,38.1-159.5,38.2 M-159.5,37.9c-2,0-2.7,1.7-3,2.4c-0.1,0.2-0.1,0.3-0.1,0.4l-0.1,0.3l0.3,0
		c0.7-0.1,1.7-0.2,2.7-0.2c1.1,0,2,0.2,2.7,0.4c0.1,0,0.2,0,0.3,0l0-0.3c0-0.1-0.2-1.3-1-2.2C-158,38.2-158.7,37.9-159.5,37.9"/>
	<path class="st25" d="M-156.5,41.2c-0.8-0.2-1.8-0.3-2.9-0.4c-1.2,0-2.3,0.1-3.1,0.3c0-0.1,0-0.2,0.1-0.4c0-0.1,0.1-0.2,0.1-0.3
		c0.4,0,3-0.1,3.9-0.7c0.2-0.1,0.8-0.5,0.8-0.8l0,0c0.2,0.1,0.6,0.4,1,1C-156.5,40.4-156.5,40.9-156.5,41.2"/>
	<path class="st23" d="M-152.3,45.3c0.5-0.5,1.1-0.9,1.7-1.2c-0.6-0.5-1.2-0.9-1.9-1.3C-152.3,43.5-152.2,44.4-152.3,45.3"/>
	<path class="st10" d="M-152.3,45.4L-152.3,45.4c0-1,0-1.8-0.2-2.5l0-0.1l0.1,0c0.6,0.3,1.3,0.8,1.9,1.3l0,0l0,0
		C-151.2,44.4-151.7,44.8-152.3,45.4L-152.3,45.4z M-152.4,42.9c0.2,0.7,0.2,1.5,0.2,2.3c0.5-0.5,1-0.8,1.6-1.1
		C-151.2,43.6-151.9,43.2-152.4,42.9"/>
	<path class="st15" d="M-151.3,44.9c-0.3,0.2-0.6,0.4-0.8,0.7c0.6,0.4,1.2,0.8,1.6,1.4c0,0,0,0,0,0c0.2-0.8,0.3-1.8,0.2-2.7
		C-150.7,44.4-151,44.6-151.3,44.9"/>
	<path class="st10" d="M-150.5,47C-150.5,47-150.6,47-150.5,47L-150.5,47c-0.5-0.6-1.1-1.1-1.7-1.4l0,0l0,0c0.2-0.3,0.6-0.5,0.8-0.7
		c0.3-0.2,0.7-0.4,1-0.6l0,0l0,0C-150.2,45.1-150.2,46.1-150.5,47L-150.5,47L-150.5,47C-150.5,47-150.5,47-150.5,47 M-152.1,45.6
		c0.6,0.4,1.2,0.8,1.6,1.4c0.2-0.9,0.3-1.8,0.2-2.6c-0.3,0.1-0.7,0.3-1,0.5C-151.6,45.1-151.9,45.3-152.1,45.6"/>
	<path class="st23" d="M-150.1,46.9c0.1-0.1,0.2-0.1,0.2-0.2c0-0.1,0-0.2,0.1-0.3c0-0.1,0.1-0.2,0.1-0.3c0.1-0.3,0.3-0.6,0.1-1
		c-0.1-0.3-0.4-0.5-0.5-0.7c0,0,0,0,0,0c0.1,0.9,0,1.9-0.2,2.7C-150.3,47.1-150.2,47-150.1,46.9"/>
	<path class="st10" d="M-150.4,47.2L-150.4,47.2c0.1-0.5,0.3-1.7,0.2-2.8c0,0,0,0,0,0l0,0l0,0v0c0,0,0.1,0.1,0.1,0.1
		c0.2,0.2,0.3,0.3,0.4,0.6c0.1,0.3,0,0.6-0.1,0.9c0,0,0,0.1,0,0.1c0,0.1-0.1,0.2-0.1,0.3c0,0,0,0.1,0,0.2c0,0.1,0,0.1,0,0.2
		c0,0.1-0.1,0.2-0.2,0.2C-150.2,47-150.2,47.1-150.4,47.2L-150.4,47.2z M-150.1,44.5c0.1,1-0.1,2.1-0.2,2.6c0,0,0.1-0.1,0.1-0.1
		c0.1-0.1,0.1-0.1,0.2-0.2c0-0.1,0-0.1,0-0.2c0-0.1,0-0.1,0-0.2c0-0.1,0.1-0.2,0.1-0.3c0,0,0-0.1,0-0.1c0.1-0.3,0.2-0.6,0.1-0.8
		C-149.7,44.9-149.9,44.7-150.1,44.5C-150.1,44.5-150.1,44.5-150.1,44.5 M-150.1,44.4L-150.1,44.4L-150.1,44.4z"/>
	<path class="st23" d="M-150.3,47.3c0.2,0.2,0.3,0.5,0.3,0.8c0.1-0.3,0.1-0.8,0.1-1.2C-150,47.1-150.1,47.2-150.3,47.3"/>
	<path class="st23" d="M-168.3,47.1c-0.2-0.8-0.3-1.8-0.2-2.7c0,0,0,0,0,0c-0.2,0.2-0.4,0.4-0.5,0.7c-0.1,0.3,0,0.6,0.1,1
		c0,0.1,0.1,0.2,0.1,0.3c0,0.1,0.1,0.2,0.1,0.3c0,0.1,0.1,0.2,0.2,0.2C-168.4,47-168.4,47.1-168.3,47.1"/>
	<path class="st10" d="M-168.2,47.2L-168.2,47.2c-0.1-0.1-0.2-0.1-0.3-0.2c-0.1-0.1-0.2-0.1-0.2-0.2c0-0.1,0-0.1-0.1-0.2
		c0,0,0-0.1,0-0.2c0-0.1-0.1-0.2-0.1-0.3c0,0,0-0.1,0-0.1c-0.1-0.3-0.2-0.6-0.1-0.9c0.1-0.2,0.2-0.4,0.4-0.6c0,0,0.1-0.1,0.1-0.1v0
		l0,0l0,0c0,0,0,0,0,0C-168.6,45.5-168.4,46.7-168.2,47.2L-168.2,47.2z M-168.6,44.5C-168.6,44.5-168.6,44.5-168.6,44.5
		c-0.2,0.3-0.4,0.4-0.4,0.6c-0.1,0.3,0,0.6,0.1,0.8c0,0,0,0.1,0,0.1c0,0.1,0.1,0.2,0.1,0.3c0,0.1,0,0.1,0,0.2c0,0.1,0,0.1,0,0.2
		c0,0.1,0.1,0.2,0.2,0.2c0.1,0,0.1,0.1,0.1,0.1C-168.5,46.6-168.7,45.5-168.6,44.5 M-168.6,44.4L-168.6,44.4L-168.6,44.4"/>
	<path class="st23" d="M-168.8,47c0,0.4,0,0.8,0.1,1.2c0-0.3,0.1-0.6,0.3-0.8C-168.5,47.2-168.6,47.1-168.8,47"/>
	<path class="st26" d="M-159.5,58.6c0,0-0.1,0-0.2,0c-0.3,0-3.2-0.1-5.3-2.4c-2.2-2.3-2.7-6-1.3-9.4l0.6,0.3
		c-1.3,3.1-0.8,6.5,1.2,8.7c2,2.1,4.7,2.2,4.8,2.2c2.8,0.1,4.7-1.7,5.2-2.3c2-2.1,2.5-5.5,1.2-8.6l0.6-0.3c1.4,3.3,0.8,7-1.3,9.3
		C-154.5,56.7-156.5,58.6-159.5,58.6"/>
	<path class="st26" d="M-158,55.9c0,0.8-0.6,1.4-1.4,1.4c-0.8,0-1.4-0.6-1.4-1.4c0-0.1,0-0.2,0-0.3c0.1,0.6,0.7,1.1,1.4,1.1
		c0.7,0,1.3-0.5,1.4-1.1C-158,55.7-158,55.8-158,55.9"/>
	<path class="st26" d="M-160.3,50.1C-160.4,50.1-160.4,50.1-160.3,50.1c-0.6-0.2-1-0.4-1.5-0.4c-0.6-0.1-1.1,0-1.7,0.1
		c-0.1,0-0.2,0-0.2-0.2c0-0.1,0-0.2,0.2-0.2c0.6-0.1,1.2-0.2,1.8-0.1c0.5,0.1,1.1,0.2,1.6,0.4c0.1,0,0.1,0.2,0.1,0.3
		C-160.2,50.1-160.3,50.1-160.3,50.1"/>
	<path class="st10" d="M-162.7,49.3v-1.6c0.1-0.5,0.4-0.9,0.9-1c0.6-0.1,1.2,0.4,1.3,1v2"/>
	<path class="st26" d="M-160.6,49.9c-0.1,0-0.2-0.1-0.2-0.2v-2c0-0.3-0.2-0.5-0.4-0.7c-0.2-0.1-0.4-0.2-0.6-0.2
		c-0.4,0.1-0.7,0.4-0.8,0.8v1.6c0,0.1-0.1,0.2-0.2,0.2s-0.2-0.1-0.2-0.2v-1.6c0.1-0.6,0.5-1.1,1.1-1.2c0.3,0,0.7,0,0.9,0.2
		c0.3,0.2,0.5,0.6,0.5,0.9v0v2C-160.4,49.8-160.4,49.9-160.6,49.9"/>
	<path class="st26" d="M-161.1,47.8c-0.1-0.2-0.3-0.5-0.4-0.5c-0.2,0-0.1,0.8-0.2,0.8c-0.1,0-0.3-0.4-0.4-0.4c-0.2,0-0.4,1,0.1,1.3
		c0.2,0.1,0.5,0,0.7-0.1C-160.9,48.7-161,48.1-161.1,47.8 M-162,48.7c-0.1,0-0.2-0.1-0.2-0.2s0.1-0.2,0.2-0.2c0.1,0,0.2,0.1,0.2,0.2
		S-161.8,48.7-162,48.7"/>
	<path class="st10" d="M-155.1,49.6c-0.4-0.1-1-0.2-1.7-0.1c-0.6,0.1-1.2,0.3-1.5,0.4"/>
	<path class="st26" d="M-158.4,50.1c-0.1,0-0.2,0-0.2-0.1c0-0.1,0-0.2,0.1-0.3c0.5-0.2,1-0.4,1.6-0.4c0.6-0.1,1.2,0,1.8,0.1
		c0.1,0,0.2,0.1,0.2,0.2c0,0.1-0.1,0.2-0.2,0.2c-0.6-0.1-1.1-0.1-1.7-0.1C-157.4,49.8-157.8,49.9-158.4,50.1
		C-158.3,50.1-158.4,50.1-158.4,50.1"/>
	<path class="st10" d="M-156,49.3v-1.6c-0.1-0.5-0.4-0.9-0.9-1c-0.6-0.1-1.2,0.4-1.3,1v2"/>
	<path class="st26" d="M-158.2,49.9c-0.1,0-0.2-0.1-0.2-0.2v-2c0-0.4,0.2-0.7,0.5-0.9c0.3-0.2,0.6-0.3,0.9-0.2
		c0.6,0.1,1,0.6,1.1,1.2v0v1.6c0,0.1-0.1,0.2-0.2,0.2s-0.2-0.1-0.2-0.2v-1.6c0-0.4-0.4-0.8-0.8-0.8c-0.2,0-0.4,0-0.6,0.2
		c-0.2,0.2-0.3,0.4-0.4,0.7v2C-158,49.8-158.1,49.9-158.2,49.9"/>
	<path class="st26" d="M-156.6,47.8c-0.1,0-0.2,0.4-0.4,0.4c-0.2,0-0.1-0.8-0.2-0.8c-0.1,0-0.3,0.2-0.4,0.5
		c-0.1,0.3-0.2,0.9,0.2,1.2c0.2,0.1,0.4,0.2,0.7,0.1C-156.2,48.8-156.4,47.8-156.6,47.8 M-156.8,48.7c-0.1,0-0.2-0.1-0.2-0.2
		s0.1-0.2,0.2-0.2c0.1,0,0.2,0.1,0.2,0.2C-156.6,48.6-156.6,48.7-156.8,48.7"/>
	<path d="M-156.6,56.8L-156.6,56.8L-156.6,56.8"/>
	<path d="M-156.6,56.8L-156.6,56.8L-156.6,56.8"/>
	<path d="M-156.6,56.8L-156.6,56.8L-156.6,56.8"/>
	<path d="M-156.6,56.8L-156.6,56.8L-156.6,56.8"/>
	<path d="M-156.6,56.8L-156.6,56.8L-156.6,56.8"/>
	<path d="M-156.6,56.8L-156.6,56.8L-156.6,56.8"/>
	<path d="M-156.6,56.8L-156.6,56.8L-156.6,56.8"/>
	<path d="M-156.6,56.8L-156.6,56.8L-156.6,56.8"/>
	<path d="M-156.6,56.8L-156.6,56.8L-156.6,56.8"/>
	<path class="st19" d="M-148.9,54.8c-0.3,0.8-0.8,2.1-1.9,3.3c-1,1.3-2.2,2.1-2.9,2.6c-1.9-0.8-3.8-1.5-5.6-2.3c0.7,0,2-0.1,3.5-0.9
		c1.5-0.9,2.3-2.1,2.7-2.6C-151.7,54.9-150.3,54.9-148.9,54.8"/>
	<path d="M-156.6,56.8L-156.6,56.8L-156.6,56.8"/>
	<path class="st15" d="M-153.8,56.4c1.3,0.2,2.5,0.6,3.8,0.7c-0.1-0.8-0.2-1.5-0.3-2.3c-0.8,0.1-1.6,0.2-2.3,0.2
		C-152.9,55.6-153.4,56-153.8,56.4"/>
	<path class="st15" d="M-156.4,58.3c-0.6,0.3-1,0.4-0.9,0.5c0.1,0.1,0.2,0.1,0.3,0.2c0.7,0.4,1.5,0.8,2.2,1.1
		c0.2-1.1,0.3-2.2,0.4-3.3c-0.1,0.1-0.1,0.2-0.3,0.3C-154.8,57.3-155.3,57.7-156.4,58.3"/>
	<path class="st23" d="M-154.5,60.1c0.7-0.2,1.5-0.6,2.4-1.2c0.7-0.5,1.3-1,1.7-1.4c-0.6-0.1-1.1-0.2-1.7-0.4
		c-0.7-0.1-1.3-0.3-1.9-0.4C-154.2,57.9-154.3,59-154.5,60.1"/>
	<path class="st19" d="M-170.1,54.8c0.3,0.8,0.8,2.1,1.9,3.3c1,1.3,2.2,2.1,2.9,2.6c1.9-0.8,3.8-1.5,5.6-2.3c-0.7,0-2-0.1-3.5-0.9
		c-1.5-0.9-2.3-2.1-2.7-2.6C-167.2,54.9-168.6,54.9-170.1,54.8"/>
	<path class="st15" d="M-166.4,55c-0.7,0-1.5,0-2.3-0.2c-0.1,0.8-0.1,1.5-0.3,2.3c1.3-0.2,2.5-0.5,3.8-0.7
		C-165.6,56-166.1,55.6-166.4,55"/>
	<path class="st15" d="M-164.3,57.1c-0.1-0.1-0.2-0.2-0.3-0.3c0.1,1.1,0.3,2.2,0.4,3.3c0.8-0.3,1.5-0.7,2.2-1.1
		c0.1-0.1,0.2-0.1,0.3-0.2c0.1-0.1-0.3-0.3-0.9-0.5C-163.7,57.7-164.1,57.3-164.3,57.1"/>
	<path class="st23" d="M-165,56.8c-0.6,0.1-1.3,0.2-1.9,0.4c-0.6,0.1-1.1,0.2-1.7,0.4c0.4,0.4,1,0.9,1.7,1.4c0.9,0.6,1.7,1,2.4,1.2
		C-164.7,59-164.7,57.9-165,56.8"/>
	<path class="st27" d="M-155.9,53.1c-1.5-1.9-2.8-1.9-3.5-1.7c-0.7-0.2-2.1-0.3-3.6,1.6c-1.8,2.2-3.9,0.7-3.9,0.7s2.4,2.2,5.2,1.4
		c0.4-0.1,0.7-0.4,1-0.7c0,0-0.1,0.2-0.3,0.4c0.1,0,0.1-0.1,0.2-0.1c0.6-0.3,1-0.6,1.4-0.9c0,0.7,0.6,1.2,0.6,1.2l0.1-0.6
		c0.3,0.3,0.7,0.5,0.9,0.5c1.2,0.7,2.3,0.7,3.3,0.5c-0.2,0-0.6-0.1-1.1-0.3c0,0,1,0.2,1.7,0.1c1.3-0.4,2.1-1.2,2.1-1.2
		S-154.2,55.3-155.9,53.1"/>
	<path class="st20" d="M-160.2,51.3c0.3,0,0.5,0,0.7,0.1c0.2,0,0.4-0.1,0.6-0.1c0.8,0,1.8,0.4,2.9,1.8c0.8,1,1.6,1.3,2.3,1.3
		c0.9,0,1.5-0.4,1.5-0.4s-0.9,0.7-2.1,1.2c-0.1,0-0.2,0-0.3,0c-0.6,0-1.4-0.2-1.4-0.2c0.6,0.2,1,0.3,1.1,0.3
		c-0.4,0.1-0.7,0.1-1.1,0.1c-0.7,0-1.5-0.2-2.2-0.6c-0.2-0.1-0.6-0.2-0.9-0.5l-0.1,0.6c0,0-0.6-0.4-0.6-1.2
		c-0.3,0.3-0.8,0.6-1.4,0.9c-0.1,0-0.1,0.1-0.2,0.1c0.2-0.2,0.3-0.4,0.3-0.4c-0.3,0.3-0.7,0.6-1,0.7c-0.4,0.1-0.9,0.2-1.3,0.2
		c-2.2,0-3.9-1.5-3.9-1.5s0.7,0.5,1.6,0.5c0.7,0,1.5-0.3,2.3-1.2C-161.9,51.6-160.9,51.3-160.2,51.3 M-160.2,51.1v0.1V51.1
		c-1,0-2,0.6-3,1.7c-0.6,0.8-1.4,1.2-2.2,1.2c-0.9,0-1.5-0.5-1.5-0.5l-0.2,0.2c0.1,0.1,1.8,1.6,4,1.6c0.5,0,0.9-0.1,1.3-0.2l0,0l0,0
		c0,0,0.1,0,0.2-0.1l-0.1,0.1l0.7-0.3c0.1,0,0.2-0.1,0.2-0.1c0.5-0.3,0.9-0.5,1.2-0.8c0.1,0.6,0.6,1,0.6,1l0.2,0.2l0-0.2l0-0.4
		c0.2,0.2,0.5,0.3,0.7,0.4c0.7,0.4,1.5,0.6,2.3,0.6c0.4,0,0.8,0,1.2-0.1l0.9-0.2l-0.2,0c1.2-0.4,2-1.1,2-1.1l-0.2-0.2
		c0,0-0.6,0.4-1.5,0.4c-0.9,0-1.6-0.4-2.2-1.2c-1.2-1.5-2.3-1.8-3-1.8c-0.2,0-0.4,0-0.6,0.1C-159.7,51.2-159.9,51.1-160.2,51.1"/>
	<path class="st27" d="M-158.3,51.8c1.5,0,1.7,1.2,1.7,1.2C-157.2,52.2-158.3,51.8-158.3,51.8"/>
	<path class="st20" d="M-158.3,51.8c1.5,0,1.7,1.2,1.7,1.2C-157.2,52.2-158.3,51.8-158.3,51.8 M-159.2,51.7l0.8,0.3
		c0,0,1.1,0.4,1.6,1.1l0.3,0.5l-0.1-0.6c0,0,0-0.3-0.3-0.6c-0.2-0.3-0.7-0.6-1.5-0.6L-159.2,51.7z"/>
	<path class="st27" d="M-160.4,51.7c0,0-1.2,0.1-2.1,1.5C-162.5,53.2-161.6,52.3-160.4,51.7"/>
	<path class="st20" d="M-160.4,51.7c-1.2,0.6-2.1,1.5-2.1,1.5C-161.6,51.8-160.4,51.7-160.4,51.7 M-159.7,51.5l-0.7,0
		c0,0-1.3,0.1-2.2,1.6l-0.7,1.1l0.9-0.9c0,0,0.9-1,2-1.5L-159.7,51.5z"/>
	<path class="st24" d="M-150.4,49.2c-0.1-0.1-0.2-0.2-0.2-0.3c-3.6-4.1-8.9-4.1-8.9-4.1h0c-2.7,0-5.8,1.2-9.1,4.3
		c0,0-0.1-0.1-0.2-0.2c0-0.1-0.1-0.2-0.1-0.2c3.3-3.1,6.5-4.4,9.4-4.4h0c3.1,0,5.4,1.3,6.2,1.8c0.9,0.5,2.1,1.3,3.3,2.7
		c0,0.1-0.1,0.1-0.1,0.2C-150.3,49.1-150.3,49.1-150.4,49.2"/>
	<path class="st15" d="M-150.8,61c-0.1-0.1-1,0.5-2.9,0.4c-1.5-0.1-2.2-0.7-2.9-1.4c-0.7-0.6-1.3-0.5-1.7,0
		c-0.5,0.7-0.1,1.5,0.3,1.7c0.5,0.4,1.5,1,3.6,1C-151.7,62.7-150.7,61.1-150.8,61 M-158.2,60.2c0,0,0.1-0.4,0.7-0.4
		c0.5,0,1,0.8,1.3,0.9c-0.4-0.1-0.8-0.7-1.2-0.7C-158,59.9-158.2,60.2-158.2,60.2 M-154.5,62.5c-1.7,0-2.6-0.4-3.2-0.7c0,0,0,0,0,0
		c0,0,0,0,0,0c0.2,0.1,1.2,0.6,3.2,0.6c1.7,0,2.6-0.5,2.6-0.5C-152.4,62.2-153.3,62.5-154.5,62.5"/>
	<path class="st26" d="M-158.6,60.1c-0.2-0.1-0.7-0.4-1-1c-0.3-0.5-0.3-1-0.2-1.3l0.3,0c0,0.2,0,0.7,0.2,1.1
		c0.2,0.5,0.6,0.7,0.8,0.8L-158.6,60.1z"/>
	<path class="st15" d="M-164.5,62.7c2.2,0,3.1-0.6,3.6-1c0.4-0.3,0.8-1.1,0.3-1.7c-0.4-0.5-1-0.7-1.7,0c-0.7,0.6-1.4,1.3-2.9,1.4
		c-1.9,0.1-2.8-0.5-2.9-0.4C-168.3,61.1-167.3,62.7-164.5,62.7 M-161.6,60c-0.4,0.1-0.8,0.6-1.2,0.7c0.3-0.1,0.8-0.9,1.3-0.9
		s0.7,0.4,0.7,0.4S-161.1,59.9-161.6,60 M-167.2,61.9c0,0,0.9,0.5,2.6,0.5c2,0,3-0.5,3.2-0.6c0,0,0,0,0,0c0,0,0,0,0,0
		c-0.6,0.3-1.5,0.7-3.2,0.7C-165.8,62.5-166.6,62.2-167.2,61.9"/>
	<path class="st26" d="M-160.5,60.1l-0.2-0.3c0.2-0.1,0.6-0.4,0.8-0.8c0.2-0.5,0.2-0.9,0.2-1.1l0.3,0c0,0.3,0,0.8-0.2,1.3
		C-159.8,59.7-160.2,60-160.5,60.1"/>
	<path class="st28" d="M-160.3,60.6c0-0.1,0-0.4-0.2-0.7c-0.2-0.2-0.3-0.3-0.4-0.4"/>
	<path class="st15" d="M-160.3,60.8c-0.1,0-0.2-0.1-0.2-0.2c0-0.2-0.1-0.4-0.2-0.6c-0.1-0.1-0.2-0.3-0.4-0.3c-0.1,0-0.1-0.1-0.1-0.2
		c0-0.1,0.1-0.1,0.2-0.1c0.2,0.1,0.4,0.2,0.5,0.4c0.2,0.3,0.3,0.6,0.3,0.8C-160.1,60.7-160.2,60.8-160.3,60.8
		C-160.3,60.8-160.3,60.8-160.3,60.8"/>
	<path class="st28" d="M-158.7,60.6c0-0.1,0-0.4,0.2-0.7c0.2-0.2,0.3-0.3,0.4-0.4"/>
	<path class="st15" d="M-158.7,60.8L-158.7,60.8c-0.1,0-0.2-0.1-0.2-0.2c0-0.2,0.1-0.5,0.3-0.8c0.1-0.2,0.3-0.3,0.5-0.4
		c0.1,0,0.2,0,0.2,0.1c0,0.1,0,0.2-0.1,0.2c-0.2,0.1-0.3,0.2-0.4,0.3c-0.2,0.2-0.2,0.4-0.2,0.6C-158.6,60.7-158.7,60.8-158.7,60.8"
		/>
</g>
</svg>
